Selawik-Regular.ufo
<glyph name="exclam" format="1">
  <advance width="582"/>
  <unicode hex="0021"/>
  <outline>
    <contour>
      <point x="356" y="344" type="line"/>
      <point x="375" y="1434" type="line"/>
      <point x="203" y="1434" type="line"/>
      <point x="221" y="344" type="line"/>
    </contour>
    <component base="period" xOffset="68"/>
  </outline>
</glyph>
<glyph name="quotedbl" format="1">
  <advance width="803"/>
  <unicode hex="0022"/>
  <outline>
    <contour>
      <point x="640" y="1000" type="line"/>
      <point x="640" y="1469" type="line"/>
      <point x="495" y="1469" type="line"/>
      <point x="495" y="1000" type="line"/>
    </contour>
    <contour>
      <point x="308" y="1000" type="line"/>
      <point x="308" y="1469" type="line"/>
      <point x="163" y="1469" type="line"/>
      <point x="163" y="1000" type="line"/>
    </contour>
  </outline>
</glyph>
<glyph name="numbersign" format="1">
  <advance width="1210"/>
  <unicode hex="0023"/>
  <outline>
    <contour>
      <point x="710" y="123" type="line"/>
      <point x="991" y="1438" type="line"/>
      <point x="864" y="1438" type="line"/>
      <point x="583" y="123" type="line"/>
    </contour>
    <contour>
      <point x="1071" y="518" type="line"/>
      <point x="1100" y="625" type="line"/>
      <point x="53" y="625" type="line"/>
      <point x="24" y="518" type="line"/>
    </contour>
    <contour>
      <point x="332" y="119" type="line"/>
      <point x="610" y="1434" type="line"/>
      <point x="487" y="1434" type="line"/>
      <point x="212" y="119" type="line"/>
    </contour>
    <contour>
      <point x="1141" y="925" type="line"/>
      <point x="1170" y="1032" type="line"/>
      <point x="123" y="1032" type="line"/>
      <point x="94" y="925" type="line"/>
    </contour>
  </outline>
</glyph>
<glyph name="quotesingle" format="1">
  <advance width="471"/>
  <unicode hex="0027"/>
  <outline>
    <contour>
      <point x="308" y="1000" type="line"/>
      <point x="308" y="1469" type="line"/>
      <point x="163" y="1469" type="line"/>
      <point x="163" y="1000" type="line"/>
    </contour>
  </outline>
</glyph>
<glyph name="parenleft" format="1">
  <advance width="618"/>
  <unicode hex="0028"/>
  <outline>
    <contour>
      <point x="549" y="-226" type="line"/>
      <point x="377" y="15"/>
      <point x="304" y="246"/>
      <point x="304" y="549" type="curve" smooth="yes"/>
      <point x="304" y="860"/>
      <point x="374" y="1091"/>
      <point x="537" y="1324" type="curve"/>
      <point x="441" y="1404" type="line"/>
      <point x="235" y="1160"/>
      <point x="148" y="904"/>
      <point x="148" y="549" type="curve" smooth="yes"/>
      <point x="148" y="183"/>
      <point x="238" y="-73"/>
      <point x="451" y="-306" type="curve"/>
    </contour>
  </outline>
</glyph>
<glyph name="asterisk" format="1">
  <advance width="854"/>
  <unicode hex="002A"/>
  <outline>
    <contour>
      <point x="450" y="1040" type="line"/>
      <point x="771" y="1197" type="line"/>
      <point x="703" y="1315" type="line"/>
      <point x="407" y="1115" type="line"/>
      <point x="87" y="959" type="line"/>
      <point x="155" y="841" type="line"/>
    </contour>
    <contour>
      <point x="771" y="959" type="line"/>
      <point x="451" y="1115" type="line"/>
      <point x="155" y="1315" type="line"/>
      <point x="87" y="1197" type="line"/>
      <point x="408" y="1041" type="line"/>
      <point x="703" y="841" type="line"/>
    </contour>
    <contour>
      <point x="497" y="722" type="line"/>
      <point x="472" y="1078" type="line"/>
      <point x="497" y="1434" type="line"/>
      <point x="361" y="1434" type="line"/>
      <point x="386" y="1079" type="line"/>
      <point x="361" y="722" type="line"/>
    </contour>
  </outline>
</glyph>
<glyph name="plus" format="1">
  <advance width="1401"/>
  <unicode hex="002B"/>
  <outline>
    <contour>
      <point x="768" y="127" type="line"/>
      <point x="768" y="530" type="line"/>
      <point x="1172" y="530" type="line"/>
      <point x="1172" y="664" type="line"/>
      <point x="768" y="664" type="line"/>
      <point x="768" y="1067" type="line"/>
      <point x="635" y="1067" type="line"/>
      <point x="635" y="664" type="line"/>
      <point x="232" y="664" type="line"/>
      <point x="232" y="530" type="line"/>
      <point x="635" y="530" type="line"/>
      <point x="635" y="127" type="line"/>
    </contour>
  </outline>
</glyph>
<glyph name="comma" format="1">
  <advance width="444"/>
  <unicode hex="002C"/>
  <outline>
    <contour>
      <point x="274" y="-131"/>
      <point x="336" y="64"/>
      <point x="336" y="228" type="curve"/>
      <point x="156" y="228" type="line"/>
      <point x="156" y="64"/>
      <point x="127" y="-30"/>
      <point x="39" y="-194" type="curve"/>
      <point x="176" y="-264" type="line"/>
    </contour>
  </outline>
</glyph>
<glyph name="hyphen" format="1">
  <advance width="819"/>
  <unicode hex="002D"/>
  <outline>
    <contour>
      <point x="690" y="456" type="line"/>
      <point x="690" y="585" type="line"/>
      <point x="144" y="585" type="line"/>
      <point x="144" y="456" type="line"/>
    </contour>
  </outline>
</glyph>
<glyph name="period" format="1">
  <advance width="444"/>
  <unicode hex="002E"/>
  <outline>
    <contour>
      <point x="291" y="-22"/>
      <point x="336" y="22"/>
      <point x="336" y="90" type="curve" smooth="yes"/>
      <point x="336" y="158"/>
      <point x="291" y="203"/>
      <point x="223" y="203" type="curve" smooth="yes"/>
      <point x="155" y="203"/>
      <point x="111" y="158"/>
      <point x="111" y="90" type="curve" smooth="yes"/>
      <point x="111" y="22"/>
      <point x="155" y="-22"/>
      <point x="223" y="-22" type="curve" smooth="yes"/>
    </contour>
  </outline>
</glyph>
<glyph name="zero" format="1">
  <advance width="1104"/>
  <unicode hex="0030"/>
  <outline>
    <contour>
      <point x="845" y="-27"/>
      <point x="1021" y="246"/>
      <point x="1021" y="722" type="curve" smooth="yes"/>
      <point x="1021" y="1189"/>
      <point x="856" y="1456"/>
      <point x="569" y="1456" type="curve"/>
      <point x="569" y="1458" type="line"/>
      <point x="261" y="1458"/>
      <point x="85" y="1177"/>
      <point x="85" y="687" type="curve" smooth="yes"/>
      <point x="85" y="233"/>
      <point x="250" y="-27"/>
      <point x="538" y="-27" type="curve" smooth="yes"/>
    </contour>
    <contour>
      <point x="370" y="123"/>
      <point x="265" y="331"/>
      <point x="265" y="694" type="curve" smooth="yes"/>
      <point x="265" y="1085"/>
      <point x="373" y="1308"/>
      <point x="562" y="1308" type="curve" smooth="yes"/>
      <point x="740" y="1308"/>
      <point x="842" y="1089"/>
      <point x="842" y="706" type="curve" smooth="yes"/>
      <point x="842" y="336"/>
      <point x="738" y="124"/>
      <point x="556" y="124" type="curve"/>
      <point x="555" y="123" type="line"/>
    </contour>
  </outline>
</glyph>
<glyph name="one" format="1">
  <advance width="1104"/>
  <unicode hex="0031"/>
  <outline>
    <contour>
      <point x="725" y="-1" type="line"/>
      <point x="724" y="1466" type="line"/>
      <point x="609" y="1466" type="line"/>
      <point x="213" y="1320" type="line"/>
      <point x="249" y="1177" type="line"/>
      <point x="551" y="1277" type="line"/>
      <point x="551" y="-1" type="line"/>
    </contour>
  </outline>
</glyph>
<glyph name="two" format="1">
  <advance width="1104"/>
  <unicode hex="0032"/>
  <outline>
    <contour>
      <point x="993" y="0" type="line"/>
      <point x="993" y="167" type="line"/>
      <point x="324" y="167" type="line"/>
      <point x="324" y="587"/>
      <point x="938" y="511"/>
      <point x="938" y="1073" type="curve" smooth="yes"/>
      <point x="938" y="1612"/>
      <point x="262" y="1441"/>
      <point x="127" y="1418" type="curve"/>
      <point x="153" y="1259" type="line"/>
      <point x="305" y="1288"/>
      <point x="760" y="1411"/>
      <point x="760" y="1058" type="curve" smooth="yes"/>
      <point x="760" y="637"/>
      <point x="108" y="711"/>
      <point x="108" y="61" type="curve"/>
      <point x="108" y="0" type="line"/>
    </contour>
  </outline>
</glyph>
<glyph name="three" format="1">
  <advance width="1104"/>
  <unicode hex="0033"/>
  <outline>
    <contour>
      <point x="241" y="-14"/>
      <point x="951" y="-156"/>
      <point x="951" y="405" type="curve" smooth="yes"/>
      <point x="951" y="568"/>
      <point x="858" y="725"/>
      <point x="675" y="747" type="curve"/>
      <point x="675" y="751" type="line"/>
      <point x="825" y="804"/>
      <point x="902" y="923"/>
      <point x="902" y="1115" type="curve" smooth="yes"/>
      <point x="902" y="1574"/>
      <point x="314" y="1450"/>
      <point x="190" y="1431" type="curve"/>
      <point x="208" y="1281" type="line"/>
      <point x="322" y="1303"/>
      <point x="728" y="1403"/>
      <point x="728" y="1074" type="curve" smooth="yes"/>
      <point x="728" y="881"/>
      <point x="567" y="810"/>
      <point x="328" y="810" type="curve"/>
      <point x="334" y="671" type="line"/>
      <point x="596" y="671"/>
      <point x="779" y="599"/>
      <point x="779" y="390" type="curve" smooth="yes"/>
      <point x="779" y="51"/>
      <point x="312" y="139"/>
      <point x="167" y="183" type="curve"/>
      <point x="139" y="19" type="line"/>
    </contour>
  </outline>
</glyph>
<glyph name="four" format="1">
  <advance width="1104"/>
  <unicode hex="0034"/>
  <outline>
    <contour>
      <point x="849" y="-1" type="line"/>
      <point x="849" y="286" type="line"/>
      <point x="1033" y="286" type="line"/>
      <point x="1033" y="436" type="line"/>
      <point x="849" y="436" type="line"/>
      <point x="849" y="1433" type="line"/>
      <point x="675" y="1434" type="line"/>
      <point x="13" y="428" type="line"/>
      <point x="13" y="286" type="line"/>
      <point x="687" y="286" type="line"/>
      <point x="687" y="-1" type="line"/>
    </contour>
    <contour>
      <point x="687" y="1188" type="line"/>
      <point x="687" y="436" type="line"/>
      <point x="198" y="436" type="line"/>
    </contour>
  </outline>
</glyph>
<glyph name="five" format="1">
  <advance width="1104"/>
  <unicode hex="0035"/>
  <outline>
    <contour>
      <point x="208" y="-11"/>
      <point x="967" y="-181"/>
      <point x="967" y="441" type="curve" smooth="yes"/>
      <point x="967" y="685"/>
      <point x="817" y="870"/>
      <point x="485" y="870" type="curve" smooth="yes"/>
      <point x="467" y="870"/>
      <point x="392" y="866"/>
      <point x="363" y="865" type="curve"/>
      <point x="392" y="1266" type="line"/>
      <point x="903" y="1266" type="line"/>
      <point x="903" y="1434" type="line"/>
      <point x="240" y="1434" type="line"/>
      <point x="191" y="705" type="line"/>
      <point x="248" y="711"/>
      <point x="380" y="717"/>
      <point x="432" y="717" type="curve" smooth="yes"/>
      <point x="641" y="717"/>
      <point x="789" y="625"/>
      <point x="789" y="428" type="curve" smooth="yes"/>
      <point x="789" y="8"/>
      <point x="254" y="161"/>
      <point x="161" y="197" type="curve"/>
      <point x="130" y="36" type="line"/>
    </contour>
  </outline>
</glyph>
<glyph name="six" format="1">
  <advance width="1104"/>
  <unicode hex="0036"/>
  <outline>
    <contour>
      <point x="816" y="-26"/>
      <point x="1022" y="140"/>
      <point x="1022" y="456" type="curve" smooth="yes"/>
      <point x="1022" y="670"/>
      <point x="905" y="900"/>
      <point x="602" y="900" type="curve" smooth="yes"/>
      <point x="390" y="900"/>
      <point x="295" y="796"/>
      <point x="266" y="738" type="curve"/>
      <point x="281" y="611" type="line"/>
      <point x="295" y="656"/>
      <point x="377" y="747"/>
      <point x="566" y="747" type="curve" smooth="yes"/>
      <point x="773" y="747"/>
      <point x="845" y="587"/>
      <point x="845" y="432" type="curve" smooth="yes"/>
      <point x="845" y="278"/>
      <point x="781" y="135"/>
      <point x="579" y="135" type="curve" smooth="yes"/>
      <point x="282" y="135"/>
      <point x="298" y="444"/>
      <point x="292" y="621" type="curve" smooth="yes"/>
      <point x="278" y="1054"/>
      <point x="334" y="1363"/>
      <point x="886" y="1268" type="curve"/>
      <point x="916" y="1432" type="line"/>
      <point x="366" y="1531"/>
      <point x="111" y="1313"/>
      <point x="111" y="630" type="curve" smooth="yes"/>
      <point x="111" y="353"/>
      <point x="174" y="-26"/>
      <point x="571" y="-26" type="curve" smooth="yes"/>
    </contour>
  </outline>
</glyph>
<glyph name="seven" format="1">
  <advance width="1104"/>
  <unicode hex="0037"/>
  <outline>
    <contour>
      <point x="521" y="0" type="line"/>
      <point x="1012" y="1341" type="line"/>
      <point x="1010" y="1434" type="line"/>
      <point x="98" y="1434" type="line"/>
      <point x="98" y="1276" type="line"/>
      <point x="807" y="1276" type="line"/>
      <point x="335" y="0" type="line"/>
    </contour>
  </outline>
</glyph>
<glyph name="eight" format="1">
  <advance width="1104"/>
  <unicode hex="0038"/>
  <outline>
    <contour>
      <point x="858" y="-23"/>
      <point x="1021" y="176"/>
      <point x="1021" y="400" type="curve" smooth="yes"/>
      <point x="1021" y="593"/>
      <point x="882" y="727"/>
      <point x="757" y="776" type="curve"/>
      <point x="877" y="845"/>
      <point x="959" y="955"/>
      <point x="959" y="1090" type="curve" smooth="yes"/>
      <point x="959" y="1346"/>
      <point x="740" y="1458"/>
      <point x="556" y="1458" type="curve" smooth="yes"/>
      <point x="295" y="1458"/>
      <point x="155" y="1277"/>
      <point x="155" y="1090" type="curve" smooth="yes"/>
      <point x="155" y="955"/>
      <point x="237" y="844"/>
      <point x="358" y="776" type="curve"/>
      <point x="231" y="728"/>
      <point x="92" y="595"/>
      <point x="92" y="400" type="curve" smooth="yes"/>
      <point x="92" y="180"/>
      <point x="248" y="-23"/>
      <point x="555" y="-23" type="curve" smooth="yes"/>
    </contour>
    <contour>
      <point x="412" y="125"/>
      <point x="275" y="212"/>
      <point x="275" y="414" type="curve" smooth="yes"/>
      <point x="275" y="549"/>
      <point x="363" y="701"/>
      <point x="559" y="701" type="curve" smooth="yes"/>
      <point x="694" y="701"/>
      <point x="843" y="606"/>
      <point x="843" y="413" type="curve" smooth="yes"/>
      <point x="843" y="276"/>
      <point x="759" y="125"/>
      <point x="560" y="125" type="curve" smooth="yes"/>
    </contour>
    <contour>
      <point x="407" y="846"/>
      <point x="328" y="973"/>
      <point x="328" y="1081" type="curve" smooth="yes"/>
      <point x="328" y="1211"/>
      <point x="422" y="1315"/>
      <point x="563" y="1315" type="curve" smooth="yes"/>
      <point x="707" y="1315"/>
      <point x="783" y="1197"/>
      <point x="783" y="1081" type="curve" smooth="yes"/>
      <point x="783" y="927"/>
      <point x="664" y="846"/>
      <point x="561" y="846" type="curve" smooth="yes"/>
    </contour>
  </outline>
</glyph>
<glyph name="nine" format="1">
  <advance width="1104"/>
  <unicode hex="0039"/>
  <outline>
    <contour>
      <point x="845" y="-117"/>
      <point x="995" y="287"/>
      <point x="995" y="799" type="curve" smooth="yes"/>
      <point x="995" y="1206"/>
      <point x="876" y="1459"/>
      <point x="548" y="1459" type="curve" smooth="yes"/>
      <point x="264" y="1459"/>
      <point x="86" y="1260"/>
      <point x="86" y="988" type="curve" smooth="yes"/>
      <point x="86" y="684"/>
      <point x="284" y="530"/>
      <point x="494" y="530" type="curve" smooth="yes"/>
      <point x="681" y="530"/>
      <point x="795" y="580"/>
      <point x="840" y="680" type="curve"/>
      <point x="826" y="821" type="line"/>
      <point x="782" y="732"/>
      <point x="687" y="688"/>
      <point x="540" y="688" type="curve" smooth="yes"/>
      <point x="390" y="688"/>
      <point x="269" y="792"/>
      <point x="269" y="1011" type="curve" smooth="yes"/>
      <point x="269" y="1156"/>
      <point x="327" y="1301"/>
      <point x="537" y="1301" type="curve" smooth="yes"/>
      <point x="743" y="1301"/>
      <point x="815" y="1165"/>
      <point x="817" y="815" type="curve"/>
      <point x="818" y="350"/>
      <point x="738" y="60"/>
      <point x="255" y="165" type="curve"/>
      <point x="235" y="-4" type="line"/>
    </contour>
  </outline>
</glyph>
<glyph name="colon" format="1">
  <advance width="444"/>
  <unicode hex="003A"/>
  <outline>
    <contour>
      <point x="299" y="741"/>
      <point x="356" y="796"/>
      <point x="356" y="868" type="curve" smooth="yes"/>
      <point x="356" y="941"/>
      <point x="299" y="996"/>
      <point x="223" y="996" type="curve" smooth="yes"/>
      <point x="148" y="996"/>
      <point x="91" y="941"/>
      <point x="91" y="868" type="curve" smooth="yes"/>
      <point x="91" y="796"/>
      <point x="148" y="741"/>
      <point x="223" y="741" type="curve" smooth="yes"/>
    </contour>
    <contour>
      <point x="299" y="-22"/>
      <point x="356" y="33"/>
      <point x="356" y="105" type="curve" smooth="yes"/>
      <point x="356" y="178"/>
      <point x="299" y="233"/>
      <point x="223" y="233" type="curve" smooth="yes"/>
      <point x="148" y="233"/>
      <point x="91" y="178"/>
      <point x="91" y="105" type="curve" smooth="yes"/>
      <point x="91" y="33"/>
      <point x="148" y="-22"/>
      <point x="223" y="-22" type="curve" smooth="yes"/>
    </contour>
  </outline>
</glyph>
<glyph name="semicolon" format="1">
  <advance width="444"/>
  <unicode hex="003B"/>
  <outline>
    <contour>
      <point x="294" y="804"/>
      <point x="348" y="858"/>
      <point x="348" y="926" type="curve" smooth="yes"/>
      <point x="348" y="994"/>
      <point x="294" y="1046"/>
      <point x="226" y="1046" type="curve" smooth="yes"/>
      <point x="159" y="1046"/>
      <point x="103" y="994"/>
      <point x="103" y="926" type="curve" smooth="yes"/>
      <point x="103" y="858"/>
      <point x="159" y="804"/>
      <point x="226" y="804" type="curve" smooth="yes"/>
    </contour>
    <component base="comma"/>
  </outline>
</glyph>
<glyph name="greater" format="1">
  <advance width="1401"/>
  <unicode hex="003E"/>
  <outline>
    <contour>
      <point x="1132" y="559" type="line"/>
      <point x="1132" y="618" type="line"/>
      <point x="272" y="1100" type="line"/>
      <point x="272" y="950" type="line"/>
      <point x="916" y="594" type="line"/>
      <point x="916" y="588" type="line"/>
      <point x="272" y="276" type="line"/>
      <point x="272" y="127" type="line"/>
    </contour>
  </outline>
</glyph>
<glyph name="question" format="1">
  <advance width="918"/>
  <unicode hex="003F"/>
  <outline>
    <contour>
      <point x="486" y="360" type="line"/>
      <point x="486" y="528" type="line" smooth="yes"/>
      <point x="486" y="822"/>
      <point x="799" y="720"/>
      <point x="799" y="1123" type="curve" smooth="yes"/>
      <point x="799" y="1336"/>
      <point x="661" y="1458"/>
      <point x="420" y="1458" type="curve" smooth="yes"/>
      <point x="322" y="1458"/>
      <point x="214" y="1444"/>
      <point x="124" y="1420" type="curve"/>
      <point x="161" y="1268" type="line"/>
      <point x="257" y="1290"/>
      <point x="346" y="1303"/>
      <point x="407" y="1303" type="curve" smooth="yes"/>
      <point x="555" y="1302"/>
      <point x="640" y="1231"/>
      <point x="641" y="1109" type="curve" smooth="yes"/>
      <point x="643" y="845"/>
      <point x="325" y="939"/>
      <point x="325" y="522" type="curve"/>
      <point x="325" y="360" type="line"/>
    </contour>
    <component base="period" xOffset="192"/>
  </outline>
</glyph>
<glyph name="at" format="1">
  <advance width="1956"/>
  <unicode hex="0040"/>
  <outline>
    <contour>
      <point x="1788" y="1096"/>
      <point x="1555" y="1332"/>
      <point x="1008" y="1332" type="curve" smooth="yes"/>
      <point x="422" y="1332"/>
      <point x="172" y="1078"/>
      <point x="172" y="482" type="curve" smooth="yes"/>
      <point x="172" y="-121"/>
      <point x="427" y="-378"/>
      <point x="1027" y="-378" type="curve" smooth="yes"/>
      <point x="1276" y="-378"/>
      <point x="1450" y="-335"/>
      <point x="1607" y="-235" type="curve"/>
      <point x="1557" y="-114" type="line"/>
      <point x="1386" y="-202"/>
      <point x="1227" y="-240"/>
      <point x="1025" y="-240" type="curve" smooth="yes"/>
      <point x="534" y="-240"/>
      <point x="325" y="-26"/>
      <point x="325" y="478" type="curve" smooth="yes"/>
      <point x="325" y="980"/>
      <point x="530" y="1194"/>
      <point x="1010" y="1194" type="curve" smooth="yes"/>
      <point x="1455" y="1194"/>
      <point x="1645" y="996"/>
      <point x="1645" y="531" type="curve" smooth="yes"/>
      <point x="1645" y="220"/>
      <point x="1557" y="87"/>
      <point x="1350" y="87" type="curve"/>
      <point x="1312" y="-39" type="line"/>
      <point x="1646" y="-39"/>
      <point x="1788" y="134"/>
      <point x="1788" y="542" type="curve" smooth="yes"/>
    </contour>
    <component base="a" xOffset="468"/>
  </outline>
</glyph>
<glyph name="A" format="1">
  <advance width="1321"/>
  <unicode hex="0041"/>
  <outline>
    <contour>
      <point x="211" y="0" type="line"/>
      <point x="631" y="1164" type="line"/>
      <point x="636" y="1176"/>
      <point x="652" y="1240"/>
      <point x="655" y="1260" type="curve"/>
      <point x="659" y="1260" type="line"/>
      <point x="663" y="1238"/>
      <point x="679" y="1174"/>
      <point x="682" y="1164" type="curve"/>
      <point x="1114" y="0" type="line"/>
      <point x="1300" y="0" type="line"/>
      <point x="748" y="1434" type="line"/>
      <point x="574" y="1434" type="line"/>
      <point x="24" y="0" type="line"/>
    </contour>
    <contour>
      <point x="1063" y="312" type="line"/>
      <point x="1063" y="463" type="line"/>
      <point x="241" y="463" type="line"/>
      <point x="241" y="312" type="line"/>
    </contour>
    <contour>
      <point x="1189" y="10" type="move" name="ogonek"/>
    </contour>
    <contour>
      <point x="661" y="0" type="move" name="bottom"/>
    </contour>
    <contour>
      <point x="661" y="1384" type="move" name="top"/>
    </contour>
  </outline>
</glyph>
<glyph name="B" format="1">
  <advance width="1174"/>
  <unicode hex="0042"/>
  <outline>
    <contour>
      <point x="867" y="0"/>
      <point x="1071" y="158"/>
      <point x="1071" y="412" type="curve" smooth="yes"/>
      <point x="1071" y="605"/>
      <point x="949" y="741"/>
      <point x="752" y="763" type="curve"/>
      <point x="752" y="767" type="line"/>
      <point x="896" y="818"/>
      <point x="980" y="943"/>
      <point x="980" y="1107" type="curve" smooth="yes"/>
      <point x="980" y="1316"/>
      <point x="816" y="1435"/>
      <point x="596" y="1435" type="curve" smooth="yes"/>
      <point x="188" y="1435" type="line"/>
      <point x="188" y="1" type="line"/>
      <point x="606" y="0" type="line" smooth="yes"/>
    </contour>
    <contour>
      <point x="358" y="669" type="line"/>
      <point x="550" y="669" type="line" smooth="yes"/>
      <point x="757" y="669"/>
      <point x="897" y="602"/>
      <point x="897" y="415" type="curve" smooth="yes"/>
      <point x="897" y="240"/>
      <point x="772" y="153"/>
      <point x="586" y="153" type="curve" smooth="yes"/>
      <point x="358" y="153" type="line"/>
    </contour>
    <contour>
      <point x="357" y="1283" type="line"/>
      <point x="549" y="1283" type="line" smooth="yes"/>
      <point x="705" y="1283"/>
      <point x="805" y="1228"/>
      <point x="805" y="1074" type="curve" smooth="yes"/>
      <point x="805" y="904"/>
      <point x="694" y="820"/>
      <point x="529" y="820" type="curve" smooth="yes"/>
      <point x="357" y="820" type="line"/>
    </contour>
    <contour>
      <point x="587" y="1434" type="move" name="top"/>
    </contour>
    <contour>
      <point x="587" y="0" type="move" name="bottom"/>
    </contour>
  </outline>
</glyph>
<glyph name="C" format="1">
  <advance width="1268"/>
  <unicode hex="0043"/>
  <outline>
    <contour>
      <point x="886" y="-20"/>
      <point x="1063" y="20"/>
      <point x="1180" y="65" type="curve"/>
      <point x="1124" y="218" type="line"/>
      <point x="1016" y="181"/>
      <point x="882" y="142"/>
      <point x="752" y="142" type="curve" smooth="yes"/>
      <point x="451" y="142"/>
      <point x="279" y="358"/>
      <point x="279" y="721" type="curve" smooth="yes"/>
      <point x="279" y="1084"/>
      <point x="478" y="1309"/>
      <point x="823" y="1292" type="curve" smooth="yes"/>
      <point x="883" y="1289"/>
      <point x="1042" y="1275"/>
      <point x="1100" y="1256" type="curve"/>
      <point x="1149" y="1416" type="line"/>
      <point x="1060" y="1439"/>
      <point x="952" y="1460"/>
      <point x="825" y="1460" type="curve" smooth="yes"/>
      <point x="360" y="1460"/>
      <point x="93" y="1188"/>
      <point x="93" y="713" type="curve" smooth="yes"/>
      <point x="93" y="247"/>
      <point x="325" y="-20"/>
      <point x="729" y="-20" type="curve" smooth="yes"/>
    </contour>
    <contour>
      <point x="714" y="1354" type="move" name="top"/>
    </contour>
    <contour>
      <point x="634" y="0" type="move" name="bottom"/>
    </contour>
  </outline>
</glyph>
<glyph name="D" format="1">
  <advance width="1436"/>
  <unicode hex="0044"/>
  <outline>
    <contour>
      <point x="568" y="0" type="line" smooth="yes"/>
      <point x="1031" y="0"/>
      <point x="1341" y="280"/>
      <point x="1341" y="734" type="curve" smooth="yes"/>
      <point x="1341" y="1212"/>
      <point x="1079" y="1432"/>
      <point x="583" y="1432" type="curve" smooth="yes"/>
      <point x="187" y="1432" type="line"/>
      <point x="187" y="-2" type="line"/>
    </contour>
    <contour>
      <point x="356" y="1278" type="line"/>
      <point x="579" y="1280" type="line" smooth="yes"/>
      <point x="961" y="1280"/>
      <point x="1166" y="1104"/>
      <point x="1166" y="728" type="curve" smooth="yes"/>
      <point x="1166" y="358"/>
      <point x="948" y="148"/>
      <point x="570" y="148" type="curve" smooth="yes"/>
      <point x="356" y="148" type="line"/>
    </contour>
    <contour>
      <point x="718" y="717" type="move" name="center"/>
    </contour>
    <contour>
      <point x="718" y="0" type="move" name="bottom"/>
    </contour>
    <contour>
      <point x="668" y="1354" type="move" name="top"/>
    </contour>
  </outline>
</glyph>
<glyph name="E" format="1">
  <advance width="1036"/>
  <unicode hex="0045"/>
  <outline>
    <contour>
      <point x="948" y="0" type="line"/>
      <point x="948" y="152" type="line"/>
      <point x="356" y="152" type="line"/>
      <point x="356" y="654" type="line"/>
      <point x="854" y="654" type="line"/>
      <point x="854" y="805" type="line"/>
      <point x="356" y="805" type="line"/>
      <point x="356" y="1282" type="line"/>
      <point x="916" y="1282" type="line"/>
      <point x="916" y="1434" type="line"/>
      <point x="188" y="1434" type="line"/>
      <point x="188" y="0" type="line"/>
    </contour>
    <contour>
      <point x="819" y="10" type="move" name="ogonek"/>
    </contour>
    <contour>
      <point x="508" y="0" type="move" name="bottom"/>
    </contour>
    <contour>
      <point x="548" y="1354" type="move" name="top"/>
    </contour>
  </outline>
</glyph>
<glyph name="F" format="1">
  <advance width="1000"/>
  <unicode hex="0046"/>
  <outline>
    <contour>
      <point x="356" y="0" type="line"/>
      <point x="356" y="635" type="line"/>
      <point x="854" y="635" type="line"/>
      <point x="854" y="786" type="line"/>
      <point x="356" y="786" type="line"/>
      <point x="356" y="1282" type="line"/>
      <point x="916" y="1282" type="line"/>
      <point x="916" y="1434" type="line"/>
      <point x="188" y="1434" type="line"/>
      <point x="188" y="0" type="line"/>
    </contour>
    <contour>
      <point x="500" y="1434" type="move" name="top"/>
    </contour>
    <contour>
      <point x="500" y="0" type="move" name="bottom"/>
    </contour>
  </outline>
</glyph>
<glyph name="G" format="1">
  <advance width="1405"/>
  <unicode hex="0047"/>
  <outline>
    <contour>
      <point x="950" y="-22"/>
      <point x="1125" y="22"/>
      <point x="1261" y="100" type="curve"/>
      <point x="1260" y="738" type="line"/>
      <point x="728" y="738" type="line"/>
      <point x="728" y="586" type="line"/>
      <point x="1092" y="586" type="line"/>
      <point x="1092" y="194" type="line"/>
      <point x="1013" y="151"/>
      <point x="907" y="127"/>
      <point x="800" y="127" type="curve" smooth="yes"/>
      <point x="463" y="127"/>
      <point x="270" y="340"/>
      <point x="270" y="711" type="curve" smooth="yes"/>
      <point x="270" y="1087"/>
      <point x="470" y="1302"/>
      <point x="820" y="1302" type="curve" smooth="yes"/>
      <point x="956" y="1302"/>
      <point x="1116" y="1276"/>
      <point x="1177" y="1265" type="curve"/>
      <point x="1232" y="1413" type="line"/>
      <point x="1129" y="1434"/>
      <point x="973" y="1459"/>
      <point x="838" y="1459" type="curve" smooth="yes"/>
      <point x="366" y="1459"/>
      <point x="95" y="1183"/>
      <point x="95" y="700" type="curve" smooth="yes"/>
      <point x="95" y="241"/>
      <point x="345" y="-22"/>
      <point x="781" y="-22" type="curve" smooth="yes"/>
    </contour>
    <contour>
      <point x="783" y="1354" type="move" name="top"/>
    </contour>
    <contour>
      <point x="703" y="0" type="move" name="bottom"/>
    </contour>
  </outline>
</glyph>
<glyph name="H" format="1">
  <advance width="1454"/>
  <unicode hex="0048"/>
  <outline>
    <contour>
      <point x="356" y="0" type="line"/>
      <point x="356" y="634" type="line"/>
      <point x="1098" y="634" type="line"/>
      <point x="1098" y="0" type="line"/>
      <point x="1266" y="0" type="line"/>
      <point x="1266" y="1434" type="line"/>
      <point x="1098" y="1434" type="line"/>
      <point x="1098" y="785" type="line"/>
      <point x="356" y="785" type="line"/>
      <point x="356" y="1434" type="line"/>
      <point x="188" y="1434" type="line"/>
      <point x="188" y="0" type="line"/>
    </contour>
    <contour>
      <point x="727" y="717" type="move" name="center"/>
    </contour>
    <contour>
      <point x="727" y="0" type="move" name="bottom"/>
    </contour>
    <contour>
      <point x="727" y="1354" type="move" name="top"/>
    </contour>
  </outline>
</glyph>
<glyph name="I" format="1">
  <advance width="545"/>
  <unicode hex="0049"/>
  <outline>
    <contour>
      <point x="356" y="0" type="line"/>
      <point x="356" y="1434" type="line"/>
      <point x="188" y="1434" type="line"/>
      <point x="188" y="0" type="line"/>
    </contour>
    <contour>
      <point x="286" y="10" type="move" name="ogonek"/>
    </contour>
    <contour>
      <point x="273" y="0" type="move" name="bottom"/>
    </contour>
    <contour>
      <point x="273" y="1354" type="move" name="top"/>
    </contour>
  </outline>
</glyph>
<glyph name="J" format="1">
  <advance width="731"/>
  <unicode hex="004A"/>
  <outline>
    <contour>
      <point x="352" y="-469"/>
      <point x="555" y="-358"/>
      <point x="555" y="-20" type="curve" smooth="yes"/>
      <point x="555" y="1434" type="line"/>
      <point x="391" y="1434" type="line"/>
      <point x="391" y="1434"/>
      <point x="391" y="-29"/>
      <point x="391" y="-29" type="curve"/>
      <point x="391" y="-274"/>
      <point x="257" y="-310"/>
      <point x="69" y="-332" type="curve"/>
      <point x="90" y="-482" type="line"/>
    </contour>
    <contour>
      <point x="366" y="1434" type="move" name="top"/>
    </contour>
    <contour>
      <point x="366" y="0" type="move" name="bottom"/>
    </contour>
  </outline>
</glyph>
<glyph name="K" format="1">
  <advance width="1188"/>
  <unicode hex="004B"/>
  <outline>
    <contour>
      <point x="1169" y="1459" type="line"/>
      <point x="984" y="1484" type="line"/>
      <point x="459" y="847" type="line"/>
      <point x="414" y="793"/>
      <point x="370" y="738"/>
      <point x="325" y="684" type="curve"/>
      <point x="338" y="443" type="line"/>
    </contour>
    <contour>
      <point x="356" y="0" type="line"/>
      <point x="356" y="1434" type="line" smooth="yes"/>
      <point x="188" y="1434" type="line"/>
      <point x="188" y="0" type="line"/>
    </contour>
    <contour>
      <point x="1179" y="0" type="line"/>
      <point x="701" y="925" type="line"/>
      <point x="568" y="789" type="line"/>
      <point x="978" y="0" type="line"/>
    </contour>
    <contour>
      <point x="594" y="1434" type="move" name="top"/>
    </contour>
    <contour>
      <point x="594" y="0" type="move" name="bottom"/>
    </contour>
  </outline>
</glyph>
<glyph name="L" format="1">
  <advance width="964"/>
  <unicode hex="004C"/>
  <outline>
    <contour>
      <point x="932" y="0" type="line"/>
      <point x="932" y="152" type="line"/>
      <point x="356" y="152" type="line"/>
      <point x="356" y="1434" type="line"/>
      <point x="188" y="1434" type="line"/>
      <point x="188" y="0" type="line"/>
    </contour>
    <contour>
      <point x="482" y="717" type="move" name="center"/>
    </contour>
    <contour>
      <point x="272" y="1344" type="move" name="top"/>
    </contour>
    <contour>
      <point x="944" y="1434" type="move" name="topright"/>
    </contour>
    <contour>
      <point x="482" y="0" type="move" name="bottom"/>
    </contour>
  </outline>
</glyph>
<glyph name="M" format="1">
  <advance width="1839"/>
  <unicode hex="004D"/>
  <outline>
    <contour>
      <point x="347" y="0" type="line"/>
      <point x="347" y="902" type="line" smooth="yes"/>
      <point x="347" y="981"/>
      <point x="347" y="1151"/>
      <point x="342" y="1214" type="curve"/>
      <point x="346" y="1214" type="line"/>
      <point x="356" y="1170"/>
      <point x="368" y="1135"/>
      <point x="388" y="1096" type="curve" smooth="yes"/>
      <point x="877" y="0" type="line"/>
      <point x="959" y="0" type="line"/>
      <point x="1449" y="1104" type="line" smooth="yes"/>
      <point x="1467" y="1148"/>
      <point x="1480" y="1181"/>
      <point x="1493" y="1233" type="curve"/>
      <point x="1497" y="1233" type="line"/>
      <point x="1488" y="1139"/>
      <point x="1486" y="1014"/>
      <point x="1486" y="923" type="curve" smooth="yes"/>
      <point x="1486" y="0" type="line"/>
      <point x="1650" y="0" type="line"/>
      <point x="1650" y="1434" type="line"/>
      <point x="1440" y="1434" type="line"/>
      <point x="991" y="443" type="line" smooth="yes"/>
      <point x="971" y="399"/>
      <point x="941" y="311"/>
      <point x="922" y="259" type="curve"/>
      <point x="916" y="259" type="line"/>
      <point x="905" y="303"/>
      <point x="868" y="399"/>
      <point x="850" y="441" type="curve" smooth="yes"/>
      <point x="410" y="1434" type="line"/>
      <point x="188" y="1434" type="line"/>
      <point x="188" y="0" type="line"/>
    </contour>
    <contour>
      <point x="920" y="1434" type="move" name="top"/>
    </contour>
    <contour>
      <point x="920" y="0" type="move" name="bottom"/>
    </contour>
  </outline>
</glyph>
<glyph name="N" format="1">
  <advance width="1532"/>
  <unicode hex="004E"/>
  <outline>
    <contour>
      <point x="354" y="0" type="line"/>
      <point x="354" y="1037" type="line" smooth="yes"/>
      <point x="354" y="1101"/>
      <point x="352" y="1224"/>
      <point x="346" y="1255" type="curve"/>
      <point x="352" y="1255" type="line"/>
      <point x="363" y="1226"/>
      <point x="387" y="1171"/>
      <point x="404" y="1145" type="curve" smooth="yes"/>
      <point x="1139" y="0" type="line"/>
      <point x="1345" y="0" type="line"/>
      <point x="1344" y="1434" type="line"/>
      <point x="1178" y="1434" type="line"/>
      <point x="1178" y="424" type="line" smooth="yes"/>
      <point x="1178" y="351"/>
      <point x="1182" y="246"/>
      <point x="1189" y="194" type="curve"/>
      <point x="1185" y="194" type="line"/>
      <point x="1178" y="210"/>
      <point x="1142" y="281"/>
      <point x="1124" y="310" type="curve" smooth="yes"/>
      <point x="406" y="1435" type="line"/>
      <point x="188" y="1435" type="line"/>
      <point x="188" y="0" type="line"/>
    </contour>
    <contour>
      <point x="766" y="1354" type="move" name="top"/>
    </contour>
    <contour>
      <point x="766" y="0" type="move" name="bottom"/>
    </contour>
  </outline>
</glyph>
<glyph name="O" format="1">
  <advance width="1544"/>
  <unicode hex="004F"/>
  <outline>
    <contour>
      <point x="1198" y="-25"/>
      <point x="1447" y="290"/>
      <point x="1447" y="712" type="curve"/>
      <point x="1450" y="1136"/>
      <point x="1198" y="1457"/>
      <point x="770" y="1457" type="curve" smooth="yes"/>
      <point x="348" y="1457"/>
      <point x="92" y="1136"/>
      <point x="92" y="712" type="curve" smooth="yes"/>
      <point x="92" y="290"/>
      <point x="348" y="-25"/>
      <point x="770" y="-25" type="curve" smooth="yes"/>
    </contour>
    <contour>
      <point x="449" y="135"/>
      <point x="276" y="364"/>
      <point x="276" y="712" type="curve" smooth="yes"/>
      <point x="276" y="1063"/>
      <point x="449" y="1296"/>
      <point x="770" y="1296" type="curve" smooth="yes"/>
      <point x="1089" y="1296"/>
      <point x="1260" y="1063"/>
      <point x="1260" y="712" type="curve"/>
      <point x="1261" y="364"/>
      <point x="1089" y="135"/>
      <point x="770" y="135" type="curve" smooth="yes"/>
    </contour>
    <contour>
      <point x="772" y="717" type="move" name="center"/>
    </contour>
    <contour>
      <point x="772" y="1354" type="move" name="top"/>
    </contour>
    <contour>
      <point x="1524" y="1434" type="move" name="topright"/>
    </contour>
    <contour>
      <point x="772" y="0" type="move" name="bottom"/>
    </contour>
  </outline>
</glyph>
<glyph name="P" format="1">
  <advance width="1147"/>
  <unicode hex="0050"/>
  <outline>
    <contour>
      <point x="358" y="0" type="line"/>
      <point x="358" y="542" type="line"/>
      <point x="545" y="542" type="line" smooth="yes"/>
      <point x="848" y="542"/>
      <point x="1066" y="718"/>
      <point x="1066" y="1006" type="curve" smooth="yes"/>
      <point x="1066" y="1286"/>
      <point x="881" y="1434"/>
      <point x="584" y="1434" type="curve" smooth="yes"/>
      <point x="190" y="1434" type="line"/>
      <point x="190" y="0" type="line"/>
    </contour>
    <contour>
      <point x="357" y="1281" type="line"/>
      <point x="555" y="1282" type="line" smooth="yes"/>
      <point x="767" y="1282"/>
      <point x="891" y="1199"/>
      <point x="891" y="998" type="curve" smooth="yes"/>
      <point x="891" y="792"/>
      <point x="751" y="693"/>
      <point x="533" y="693" type="curve" smooth="yes"/>
      <point x="357" y="693" type="line"/>
    </contour>
    <contour>
      <point x="574" y="1434" type="move" name="top"/>
    </contour>
    <contour>
      <point x="574" y="0" type="move" name="bottom"/>
    </contour>
  </outline>
</glyph>
<glyph name="Q" format="1">
  <advance width="1544"/>
  <unicode hex="0051"/>
  <outline>
    <contour>
      <point x="1517" y="-203" type="line"/>
      <point x="1325" y="-159"/>
      <point x="1165" y="-34"/>
      <point x="1077" y="140" type="curve"/>
      <point x="932" y="20" type="line"/>
      <point x="1043" y="-170"/>
      <point x="1223" y="-309"/>
      <point x="1426" y="-361" type="curve"/>
    </contour>
    <component base="O"/>
    <contour>
      <point x="772" y="1434" type="move" name="top"/>
    </contour>
    <contour>
      <point x="772" y="0" type="move" name="bottom"/>
    </contour>
  </outline>
</glyph>
<glyph name="R" format="1">
  <advance width="1225"/>
  <unicode hex="0052"/>
  <outline>
    <contour>
      <point x="358" y="0" type="line"/>
      <point x="358" y="612" type="line"/>
      <point x="545" y="612" type="line" smooth="yes"/>
      <point x="842" y="612"/>
      <point x="1056" y="776"/>
      <point x="1056" y="1046" type="curve" smooth="yes"/>
      <point x="1056" y="1299"/>
      <point x="875" y="1434"/>
      <point x="584" y="1434" type="curve" smooth="yes"/>
      <point x="190" y="1434" type="line"/>
      <point x="190" y="0" type="line"/>
    </contour>
    <contour>
      <point x="1186" y="0" type="line"/>
      <point x="687" y="751" type="line"/>
      <point x="557" y="631" type="line"/>
      <point x="970" y="0" type="line"/>
    </contour>
    <contour>
      <point x="357" y="1281" type="line"/>
      <point x="555" y="1282" type="line" smooth="yes"/>
      <point x="761" y="1282"/>
      <point x="881" y="1211"/>
      <point x="881" y="1038" type="curve" smooth="yes"/>
      <point x="881" y="853"/>
      <point x="745" y="763"/>
      <point x="533" y="763" type="curve" smooth="yes"/>
      <point x="357" y="763" type="line"/>
    </contour>
    <contour>
      <point x="573" y="1344" type="move" name="top"/>
    </contour>
    <contour>
      <point x="613" y="0" type="move" name="bottom"/>
    </contour>
  </outline>
</glyph>
<glyph name="S" format="1">
  <advance width="1088"/>
  <unicode hex="0053"/>
  <outline>
    <contour>
      <point x="805" y="-10"/>
      <point x="979" y="141"/>
      <point x="980" y="384" type="curve" smooth="yes"/>
      <point x="982" y="874"/>
      <point x="303" y="783"/>
      <point x="306" y="1090" type="curve" smooth="yes"/>
      <point x="307" y="1234"/>
      <point x="449" y="1282"/>
      <point x="602" y="1282" type="curve" smooth="yes"/>
      <point x="733" y="1282"/>
      <point x="807" y="1247"/>
      <point x="873" y="1223" type="curve"/>
      <point x="938" y="1380" type="line"/>
      <point x="840" y="1419"/>
      <point x="731" y="1447"/>
      <point x="599" y="1447" type="curve" smooth="yes"/>
      <point x="336" y="1447"/>
      <point x="138" y="1340"/>
      <point x="136" y="1080" type="curve" smooth="yes"/>
      <point x="134" y="602"/>
      <point x="801" y="749"/>
      <point x="801" y="386" type="curve" smooth="yes"/>
      <point x="801" y="252"/>
      <point x="723" y="144"/>
      <point x="501" y="144" type="curve" smooth="yes"/>
      <point x="399" y="144"/>
      <point x="302" y="167"/>
      <point x="145" y="247" type="curve"/>
      <point x="80" y="98" type="line"/>
      <point x="240" y="21"/>
      <point x="356" y="-12"/>
      <point x="501" y="-11" type="curve" smooth="yes"/>
    </contour>
    <contour>
      <point x="544" y="1354" type="move" name="top"/>
    </contour>
    <contour>
      <point x="544" y="0" type="move" name="bottom"/>
    </contour>
  </outline>
</glyph>
<glyph name="T" format="1">
  <advance width="1073"/>
  <unicode hex="0054"/>
  <outline>
    <contour>
      <point x="622" y="0" type="line"/>
      <point x="622" y="1282" type="line"/>
      <point x="1036" y="1282" type="line"/>
      <point x="1036" y="1434" type="line"/>
      <point x="41" y="1434" type="line"/>
      <point x="41" y="1282" type="line"/>
      <point x="454" y="1282" type="line"/>
      <point x="454" y="0" type="line"/>
    </contour>
    <contour>
      <point x="537" y="717" type="move" name="center"/>
    </contour>
    <contour>
      <point x="537" y="0" type="move" name="bottom"/>
    </contour>
    <contour>
      <point x="537" y="1354" type="move" name="top"/>
    </contour>
  </outline>
</glyph>
<glyph name="U" format="1">
  <advance width="1407"/>
  <unicode hex="0055"/>
  <outline>
    <contour>
      <point x="1069" y="-24"/>
      <point x="1237" y="192"/>
      <point x="1237" y="580" type="curve" smooth="yes"/>
      <point x="1237" y="1434" type="line"/>
      <point x="1069" y="1434" type="line"/>
      <point x="1069" y="553" type="line" smooth="yes"/>
      <point x="1069" y="289"/>
      <point x="965" y="126"/>
      <point x="709" y="126" type="curve" smooth="yes"/>
      <point x="447" y="126"/>
      <point x="337" y="292"/>
      <point x="337" y="568" type="curve" smooth="yes"/>
      <point x="337" y="1434" type="line"/>
      <point x="169" y="1434" type="line"/>
      <point x="169" y="557" type="line" smooth="yes"/>
      <point x="169" y="188"/>
      <point x="329" y="-24"/>
      <point x="692" y="-24" type="curve" smooth="yes"/>
    </contour>
    <contour>
      <point x="702" y="10" type="move" name="ogonek"/>
    </contour>
    <contour>
      <point x="704" y="1354" type="move" name="top"/>
    </contour>
    <contour>
      <point x="1387" y="1434" type="move" name="topright"/>
    </contour>
    <contour>
      <point x="704" y="0" type="move" name="bottom"/>
    </contour>
  </outline>
</glyph>
<glyph name="V" format="1">
  <advance width="1272"/>
  <unicode hex="0056"/>
  <outline>
    <contour>
      <point x="721" y="-1" type="line"/>
      <point x="1252" y="1433" type="line"/>
      <point x="1076" y="1434" type="line"/>
      <point x="668" y="294" type="line" smooth="yes"/>
      <point x="653" y="251"/>
      <point x="640" y="207"/>
      <point x="634" y="164" type="curve"/>
      <point x="630" y="164" type="line"/>
      <point x="625" y="206"/>
      <point x="614" y="255"/>
      <point x="600" y="291" type="curve"/>
      <point x="200" y="1433" type="line"/>
      <point x="16" y="1433" type="line"/>
      <point x="536" y="-1" type="line"/>
    </contour>
    <contour>
      <point x="636" y="1384" type="move" name="top"/>
    </contour>
    <contour>
      <point x="636" y="0" type="move" name="bottom"/>
    </contour>
  </outline>
</glyph>
<glyph name="W" format="1">
  <advance width="1913"/>
  <unicode hex="0057"/>
  <outline>
    <contour>
      <point x="640" y="0" type="line"/>
      <point x="937" y="1055" type="line" smooth="yes"/>
      <point x="949" y="1099"/>
      <point x="959" y="1153"/>
      <point x="963" y="1199" type="curve"/>
      <point x="967" y="1199" type="line"/>
      <point x="969" y="1155"/>
      <point x="979" y="1093"/>
      <point x="990" y="1053" type="curve" smooth="yes"/>
      <point x="1285" y="0" type="line"/>
      <point x="1482" y="0" type="line"/>
      <point x="1887" y="1434" type="line"/>
      <point x="1708" y="1434" type="line"/>
      <point x="1413" y="325" type="line" smooth="yes"/>
      <point x="1402" y="282"/>
      <point x="1388" y="220"/>
      <point x="1386" y="187" type="curve"/>
      <point x="1382" y="187" type="line"/>
      <point x="1377" y="234"/>
      <point x="1369" y="280"/>
      <point x="1358" y="321" type="curve" smooth="yes"/>
      <point x="1054" y="1434" type="line"/>
      <point x="893" y="1434" type="line"/>
      <point x="576" y="329" type="line" smooth="yes"/>
      <point x="564" y="286"/>
      <point x="548" y="219"/>
      <point x="544" y="185" type="curve"/>
      <point x="539" y="185" type="line"/>
      <point x="537" y="228"/>
      <point x="526" y="289"/>
      <point x="515" y="329" type="curve" smooth="yes"/>
      <point x="208" y="1434" type="line"/>
      <point x="25" y="1434" type="line"/>
      <point x="445" y="0" type="line"/>
    </contour>
    <contour>
      <point x="967" y="1354" type="move" name="top"/>
    </contour>
    <contour>
      <point x="957" y="0" type="move" name="bottom"/>
    </contour>
  </outline>
</glyph>
<glyph name="X" format="1">
  <advance width="1208"/>
  <unicode hex="0058"/>
  <outline>
    <contour>
      <point x="231" y="0" type="line"/>
      <point x="573" y="553" type="line"/>
      <point x="581" y="569"/>
      <point x="605" y="617"/>
      <point x="608" y="624" type="curve"/>
      <point x="612" y="624" type="line"/>
      <point x="620" y="603"/>
      <point x="638" y="566"/>
      <point x="646" y="552" type="curve" smooth="yes"/>
      <point x="978" y="0" type="line"/>
      <point x="1181" y="0" type="line"/>
      <point x="721" y="723" type="line"/>
      <point x="1172" y="1434" type="line"/>
      <point x="981" y="1434" type="line"/>
      <point x="674" y="932" type="line" smooth="yes"/>
      <point x="657" y="905"/>
      <point x="636" y="863"/>
      <point x="618" y="828" type="curve"/>
      <point x="614" y="828" type="line"/>
      <point x="603" y="854"/>
      <point x="579" y="905"/>
      <point x="564" y="930" type="curve" smooth="yes"/>
      <point x="269" y="1436" type="line"/>
      <point x="65" y="1436" type="line"/>
      <point x="507" y="723" type="line"/>
      <point x="27" y="0" type="line"/>
    </contour>
    <contour>
      <point x="604" y="1434" type="move" name="top"/>
    </contour>
    <contour>
      <point x="604" y="0" type="move" name="bottom"/>
    </contour>
  </outline>
</glyph>
<glyph name="Y" format="1">
  <advance width="1132"/>
  <unicode hex="0059"/>
  <outline>
    <contour>
      <point x="648" y="0" type="line"/>
      <point x="648" y="530" type="line"/>
      <point x="1121" y="1434" type="line"/>
      <point x="945" y="1434" type="line"/>
      <point x="606" y="781" type="line" smooth="yes"/>
      <point x="593" y="755"/>
      <point x="575" y="714"/>
      <point x="569" y="693" type="curve"/>
      <point x="566" y="693" type="line"/>
      <point x="556" y="720"/>
      <point x="535" y="773"/>
      <point x="531" y="781" type="curve" smooth="yes"/>
      <point x="207" y="1434" type="line"/>
      <point x="19" y="1434" type="line"/>
      <point x="480" y="526" type="line"/>
      <point x="480" y="0" type="line"/>
    </contour>
    <contour>
      <point x="566" y="1354" type="move" name="top"/>
    </contour>
    <contour>
      <point x="566" y="0" type="move" name="bottom"/>
    </contour>
  </outline>
</glyph>
<glyph name="Z" format="1">
  <advance width="1168"/>
  <unicode hex="005A"/>
  <outline>
    <contour>
      <point x="1104" y="0" type="line"/>
      <point x="1104" y="152" type="line"/>
      <point x="314" y="152" type="line"/>
      <point x="1084" y="1394" type="line"/>
      <point x="1084" y="1434" type="line"/>
      <point x="80" y="1434" type="line"/>
      <point x="80" y="1282" type="line"/>
      <point x="816" y="1282" type="line"/>
      <point x="53" y="47" type="line"/>
      <point x="53" y="0" type="line"/>
    </contour>
    <contour>
      <point x="584" y="1354" type="move" name="top"/>
    </contour>
    <contour>
      <point x="584" y="0" type="move" name="bottom"/>
    </contour>
  </outline>
</glyph>
<glyph name="bracketleft" format="1">
  <advance width="618"/>
  <unicode hex="005B"/>
  <outline>
    <contour>
      <point x="568" y="-326" type="line"/>
      <point x="568" y="-207" type="line"/>
      <point x="346" y="-207" type="line"/>
      <point x="346" y="1315" type="line"/>
      <point x="568" y="1315" type="line"/>
      <point x="568" y="1434" type="line"/>
      <point x="200" y="1434" type="line"/>
      <point x="200" y="-326" type="line"/>
    </contour>
  </outline>
</glyph>
<glyph name="backslash" format="1">
  <advance width="776"/>
  <unicode hex="005C"/>
  <outline>
    <contour>
      <point x="776" y="-190" type="line"/>
      <point x="107" y="1484" type="line"/>
      <point x="-26" y="1434" type="line"/>
      <point x="647" y="-240" type="line"/>
    </contour>
  </outline>
</glyph>
<glyph name="asciicircum" format="1">
  <advance width="1401"/>
  <unicode hex="005E"/>
  <outline>
    <contour>
      <point x="377" y="624" type="line"/>
      <point x="686" y="1243" type="line"/>
      <point x="692" y="1243" type="line"/>
      <point x="1024" y="624" type="line"/>
      <point x="1174" y="624" type="line"/>
      <point x="717" y="1458" type="line"/>
      <point x="652" y="1458" type="line"/>
      <point x="230" y="624" type="line"/>
    </contour>
  </outline>
</glyph>
<glyph name="grave" format="1">
  <advance width="549"/>
  <unicode hex="0060"/>
  <outline>
    <contour>
      <point x="501" y="1218" type="line"/>
      <point x="300" y="1536" type="line"/>
      <point x="102" y="1536" type="line"/>
      <point x="344" y="1218" type="line"/>
    </contour>
  </outline>
</glyph>
<glyph name="a" format="1">
  <advance width="1042"/>
  <unicode hex="0061"/>
  <outline>
    <contour>
      <point x="987" y="28" type="line"/>
      <point x="935" y="122"/>
      <point x="901" y="223"/>
      <point x="900" y="330" type="curve"/>
      <point x="898" y="618" type="line" smooth="yes"/>
      <point x="896" y="872"/>
      <point x="769" y="1000"/>
      <point x="527" y="1000" type="curve" smooth="yes"/>
      <point x="459" y="1000"/>
      <point x="362" y="990"/>
      <point x="219" y="974" type="curve"/>
      <point x="247" y="810" type="line"/>
      <point x="343" y="825"/>
      <point x="463" y="834"/>
      <point x="514" y="834" type="curve" smooth="yes"/>
      <point x="656" y="834"/>
      <point x="736" y="768"/>
      <point x="736" y="604" type="curve"/>
      <point x="736" y="328" type="line" smooth="yes"/>
      <point x="736" y="198"/>
      <point x="778" y="75"/>
      <point x="842" y="-39" type="curve"/>
    </contour>
    <contour>
      <point x="601" y="-23"/>
      <point x="767" y="81"/>
      <point x="767" y="206" type="curve"/>
      <point x="736" y="349" type="line"/>
      <point x="736" y="217"/>
      <point x="632" y="130"/>
      <point x="475" y="130" type="curve"/>
      <point x="349" y="130"/>
      <point x="264" y="189"/>
      <point x="263" y="275" type="curve" smooth="yes"/>
      <point x="262" y="364"/>
      <point x="357" y="417"/>
      <point x="498" y="417" type="curve" smooth="yes"/>
      <point x="617" y="417"/>
      <point x="725" y="377"/>
      <point x="793" y="318" type="curve"/>
      <point x="790" y="468" type="line"/>
      <point x="691" y="538"/>
      <point x="585" y="573"/>
      <point x="473" y="573" type="curve" smooth="yes"/>
      <point x="242" y="573"/>
      <point x="91" y="457"/>
      <point x="91" y="266" type="curve" smooth="yes"/>
      <point x="91" y="64"/>
      <point x="247" y="-23"/>
      <point x="438" y="-23" type="curve"/>
    </contour>
    <contour>
      <point x="938" y="10" type="move" name="ogonek"/>
    </contour>
    <contour>
      <point x="521" y="0" type="move" name="bottom"/>
    </contour>
    <contour>
      <point x="521" y="974" type="move" name="top"/>
    </contour>
  </outline>
</glyph>
<glyph name="b" format="1">
  <advance width="1204"/>
  <unicode hex="0062"/>
  <outline>
    <contour>
      <point x="947" y="-23"/>
      <point x="1109" y="186"/>
      <point x="1109" y="509" type="curve" smooth="yes"/>
      <point x="1109" y="803"/>
      <point x="963" y="1000"/>
      <point x="671" y="1000" type="curve"/>
      <point x="519" y="1000"/>
      <point x="396" y="940"/>
      <point x="302" y="820" type="curve"/>
      <point x="299" y="713" type="line"/>
      <point x="435" y="810"/>
      <point x="505" y="835"/>
      <point x="649" y="836" type="curve" smooth="yes"/>
      <point x="833" y="837"/>
      <point x="933" y="700"/>
      <point x="933" y="511" type="curve" smooth="yes"/>
      <point x="933" y="241"/>
      <point x="805" y="130"/>
      <point x="647" y="130" type="curve" smooth="yes"/>
      <point x="536" y="130"/>
      <point x="333" y="179"/>
      <point x="333" y="418" type="curve"/>
      <point x="332" y="548" type="line"/>
      <point x="303" y="397" type="line"/>
      <point x="301" y="233"/>
      <point x="301" y="-23"/>
      <point x="635" y="-23" type="curve" smooth="yes"/>
    </contour>
    <contour>
      <point x="288" y="0" type="line"/>
      <point x="337" y="152" type="line"/>
      <point x="332" y="231" type="line"/>
      <point x="332" y="1516" type="line"/>
      <point x="167" y="1516" type="line"/>
      <point x="169" y="0" type="line"/>
    </contour>
    <contour>
      <point x="602" y="974" type="move" name="top"/>
    </contour>
    <contour>
      <point x="602" y="0" type="move" name="bottom"/>
    </contour>
  </outline>
</glyph>
<glyph name="c" format="1">
  <advance width="946"/>
  <unicode hex="0063"/>
  <outline>
    <contour>
      <point x="688" y="-23"/>
      <point x="811" y="4"/>
      <point x="920" y="45" type="curve"/>
      <point x="869" y="197" type="line"/>
      <point x="775" y="162"/>
      <point x="710" y="138"/>
      <point x="611" y="138" type="curve" smooth="yes"/>
      <point x="397" y="138"/>
      <point x="276" y="248"/>
      <point x="276" y="490" type="curve"/>
      <point x="276" y="709"/>
      <point x="364" y="831"/>
      <point x="593" y="831" type="curve" smooth="yes"/>
      <point x="701" y="831"/>
      <point x="787" y="803"/>
      <point x="847" y="776" type="curve"/>
      <point x="887" y="942" type="line"/>
      <point x="816" y="976"/>
      <point x="704" y="1000"/>
      <point x="592" y="998" type="curve"/>
      <point x="273" y="1000"/>
      <point x="95" y="795"/>
      <point x="95" y="485" type="curve" smooth="yes"/>
      <point x="95" y="170"/>
      <point x="273" y="-23"/>
      <point x="578" y="-23" type="curve" smooth="yes"/>
    </contour>
    <contour>
      <point x="473" y="974" type="move" name="top"/>
    </contour>
    <contour>
      <point x="573" y="0" type="move" name="bottom"/>
    </contour>
  </outline>
</glyph>
<glyph name="d" format="1">
  <advance width="1206"/>
  <unicode hex="0064"/>
  <outline>
    <contour>
      <point x="802" y="-23"/>
      <point x="936" y="110"/>
      <point x="936" y="360" type="curve"/>
      <point x="876" y="453" type="line"/>
      <point x="876" y="252"/>
      <point x="773" y="134"/>
      <point x="577" y="134" type="curve" smooth="yes"/>
      <point x="361" y="134"/>
      <point x="275" y="323"/>
      <point x="275" y="483" type="curve" smooth="yes"/>
      <point x="275" y="712"/>
      <point x="401" y="851"/>
      <point x="604" y="851" type="curve" smooth="yes"/>
      <point x="686" y="851"/>
      <point x="816" y="826"/>
      <point x="912" y="717" type="curve"/>
      <point x="929" y="850" type="line"/>
      <point x="825" y="950"/>
      <point x="713" y="1000"/>
      <point x="591" y="1000" type="curve" smooth="yes"/>
      <point x="294" y="1000"/>
      <point x="99" y="789"/>
      <point x="99" y="472" type="curve" smooth="yes"/>
      <point x="99" y="173"/>
      <point x="273" y="-23"/>
      <point x="537" y="-23" type="curve"/>
    </contour>
    <contour>
      <point x="1127" y="28" type="line"/>
      <point x="1075" y="122"/>
      <point x="1041" y="223"/>
      <point x="1040" y="330" type="curve"/>
      <point x="876" y="328" type="line"/>
      <point x="876" y="198"/>
      <point x="918" y="75"/>
      <point x="982" y="-39" type="curve"/>
    </contour>
    <contour>
      <point x="1040" y="1517" type="line"/>
      <point x="876" y="1517" type="line"/>
      <point x="876" y="214" type="line"/>
      <point x="1040" y="211" type="line"/>
    </contour>
    <contour>
      <point x="603" y="487" type="move" name="center"/>
    </contour>
    <contour>
      <point x="603" y="974" type="move" name="top"/>
    </contour>
    <contour>
      <point x="1186" y="974" type="move" name="topright"/>
    </contour>
    <contour>
      <point x="603" y="0" type="move" name="bottom"/>
    </contour>
  </outline>
</glyph>
<glyph name="e" format="1">
  <advance width="1071"/>
  <unicode hex="0065"/>
  <outline>
    <contour>
      <point x="710" y="-23"/>
      <point x="875" y="7"/>
      <point x="970" y="47" type="curve"/>
      <point x="919" y="187" type="line"/>
      <point x="817" y="147"/>
      <point x="714" y="128"/>
      <point x="627" y="128" type="curve" smooth="yes"/>
      <point x="386" y="128"/>
      <point x="262" y="252"/>
      <point x="262" y="492" type="curve" smooth="yes"/>
      <point x="262" y="692"/>
      <point x="342" y="849"/>
      <point x="565" y="847" type="curve" smooth="yes"/>
      <point x="761" y="845"/>
      <point x="818" y="682"/>
      <point x="805" y="549" type="curve"/>
      <point x="195" y="543" type="line"/>
      <point x="186" y="399" type="line"/>
      <point x="965" y="405" type="line"/>
      <point x="1036" y="656"/>
      <point x="937" y="1004"/>
      <point x="582" y="1004" type="curve" smooth="yes"/>
      <point x="277" y="1004"/>
      <point x="96" y="825"/>
      <point x="96" y="493" type="curve" smooth="yes"/>
      <point x="96" y="132"/>
      <point x="289" y="-23"/>
      <point x="592" y="-23" type="curve" smooth="yes"/>
    </contour>
    <contour>
      <point x="964" y="10" type="move" name="ogonek"/>
    </contour>
    <contour>
      <point x="536" y="0" type="move" name="bottom"/>
    </contour>
    <contour>
      <point x="536" y="974" type="move" name="top"/>
    </contour>
  </outline>
</glyph>
<glyph name="f" format="1">
  <advance width="641"/>
  <unicode hex="0066"/>
  <outline>
    <contour>
      <point x="391" y="2" type="line"/>
      <point x="391" y="1141" type="line"/>
      <point x="391" y="1291"/>
      <point x="415" y="1371"/>
      <point x="527" y="1371" type="curve" smooth="yes"/>
      <point x="559" y="1371"/>
      <point x="599" y="1364"/>
      <point x="648" y="1359" type="curve"/>
      <point x="684" y="1519" type="line"/>
      <point x="619" y="1526"/>
      <point x="563" y="1534"/>
      <point x="514" y="1534" type="curve" smooth="yes"/>
      <point x="283" y="1534"/>
      <point x="227" y="1353"/>
      <point x="227" y="1131" type="curve"/>
      <point x="227" y="2" type="line"/>
    </contour>
    <contour>
      <point x="52" y="831"/>
      <point x="630" y="831"/>
      <point x="630" y="831" type="curve"/>
      <point x="630" y="976" type="line"/>
      <point x="52" y="974" type="line"/>
      <point x="52" y="831" type="line"/>
    </contour>
    <contour>
      <point x="321" y="974" type="move" name="top"/>
    </contour>
    <contour>
      <point x="321" y="0" type="move" name="bottom"/>
    </contour>
  </outline>
</glyph>
<glyph name="g" format="1">
  <advance width="1206"/>
  <unicode hex="0067"/>
  <outline>
    <contour>
      <point x="779" y="-480"/>
      <point x="1040" y="-340"/>
      <point x="1040" y="0" type="curve" smooth="yes"/>
      <point x="1040" y="974" type="line"/>
      <point x="917" y="974" type="line"/>
      <point x="877" y="804" type="line"/>
      <point x="877" y="804"/>
      <point x="876" y="93"/>
      <point x="876" y="55" type="curve"/>
      <point x="876" y="-193"/>
      <point x="738" y="-309"/>
      <point x="356" y="-328" type="curve"/>
      <point x="375" y="-482" type="line"/>
    </contour>
    <contour>
      <point x="802" y="-23"/>
      <point x="936" y="110"/>
      <point x="936" y="360" type="curve"/>
      <point x="876" y="453" type="line"/>
      <point x="876" y="252"/>
      <point x="773" y="134"/>
      <point x="577" y="134" type="curve" smooth="yes"/>
      <point x="361" y="134"/>
      <point x="275" y="323"/>
      <point x="275" y="483" type="curve" smooth="yes"/>
      <point x="275" y="712"/>
      <point x="401" y="851"/>
      <point x="604" y="851" type="curve" smooth="yes"/>
      <point x="686" y="851"/>
      <point x="816" y="826"/>
      <point x="912" y="717" type="curve"/>
      <point x="929" y="850" type="line"/>
      <point x="823" y="950"/>
      <point x="711" y="1000"/>
      <point x="591" y="1000" type="curve" smooth="yes"/>
      <point x="294" y="1000"/>
      <point x="99" y="789"/>
      <point x="99" y="472" type="curve" smooth="yes"/>
      <point x="99" y="173"/>
      <point x="273" y="-23"/>
      <point x="537" y="-23" type="curve"/>
    </contour>
    <contour>
      <point x="603" y="974" type="move" name="top"/>
    </contour>
    <contour>
      <point x="603" y="0" type="move" name="bottom"/>
    </contour>
  </outline>
</glyph>
<glyph name="j" format="1">
  <advance width="496"/>
  <unicode hex="006A"/>
  <outline>
    <contour>
      <point x="312" y="1279"/>
      <point x="362" y="1329"/>
      <point x="362" y="1391" type="curve" smooth="yes"/>
      <point x="362" y="1452"/>
      <point x="312" y="1502"/>
      <point x="251" y="1502" type="curve" smooth="yes"/>
      <point x="189" y="1502"/>
      <point x="139" y="1452"/>
      <point x="139" y="1391" type="curve" smooth="yes"/>
      <point x="139" y="1329"/>
      <point x="189" y="1279"/>
      <point x="251" y="1279" type="curve" smooth="yes"/>
    </contour>
    <component base="jdotless"/>
  </outline>
</glyph>
<glyph name="k" format="1">
  <advance width="1018"/>
  <unicode hex="006B"/>
  <outline>
    <contour>
      <point x="949" y="974" type="line"/>
      <point x="784" y="1000" type="line"/>
      <point x="400" y="594" type="line" smooth="yes"/>
      <point x="348" y="540"/>
      <point x="307" y="461"/>
      <point x="285" y="427" type="curve"/>
      <point x="285" y="336" type="line"/>
      <point x="304" y="262" type="line"/>
    </contour>
    <contour>
      <point x="330" y="0" type="line"/>
      <point x="330" y="1516" type="line"/>
      <point x="166" y="1516" type="line"/>
      <point x="166" y="0" type="line"/>
    </contour>
    <contour>
      <point x="992" y="-2" type="line"/>
      <point x="617" y="624" type="line"/>
      <point x="506" y="507" type="line"/>
      <point x="810" y="-2" type="line"/>
    </contour>
    <contour>
      <point x="509" y="974" type="move" name="top"/>
    </contour>
    <contour>
      <point x="509" y="0" type="move" name="bottom"/>
    </contour>
  </outline>
</glyph>
<glyph name="l" format="1">
  <advance width="496"/>
  <unicode hex="006C"/>
  <outline>
    <contour>
      <point x="330" y="0" type="line"/>
      <point x="330" y="1516" type="line"/>
      <point x="166" y="1516" type="line"/>
      <point x="166" y="0" type="line"/>
    </contour>
    <contour>
      <point x="248" y="487" type="move" name="center"/>
    </contour>
    <contour>
      <point x="250" y="1364" type="move" name="top"/>
    </contour>
    <contour>
      <point x="476" y="1031" type="move" name="topright"/>
    </contour>
    <contour>
      <point x="248" y="0" type="move" name="bottom"/>
    </contour>
  </outline>
</glyph>
<glyph name="m" format="1">
  <advance width="1764"/>
  <unicode hex="006D"/>
  <outline>
    <contour>
      <point x="1619" y="0" type="line"/>
      <point x="1619" y="610" type="line"/>
      <point x="1618" y="833"/>
      <point x="1502" y="1000"/>
      <point x="1260" y="1000" type="curve"/>
      <point x="1097" y="1000"/>
      <point x="977" y="926"/>
      <point x="893" y="834" type="curve"/>
      <point x="913" y="681" type="line"/>
      <point x="982" y="776"/>
      <point x="1099" y="843"/>
      <point x="1239" y="843" type="curve"/>
      <point x="1403" y="843"/>
      <point x="1453" y="710"/>
      <point x="1455" y="564" type="curve"/>
      <point x="1455" y="0" type="line"/>
    </contour>
    <contour>
      <point x="329" y="0" type="line"/>
      <point x="331" y="839" type="line"/>
      <point x="288" y="974" type="line"/>
      <point x="167" y="974" type="line"/>
      <point x="165" y="0" type="line"/>
    </contour>
    <contour>
      <point x="976" y="0" type="line"/>
      <point x="976" y="610" type="line"/>
      <point x="975" y="833"/>
      <point x="859" y="1000"/>
      <point x="617" y="1000" type="curve"/>
      <point x="463" y="1000"/>
      <point x="349" y="938"/>
      <point x="270" y="814" type="curve"/>
      <point x="270" y="661" type="line"/>
      <point x="339" y="767"/>
      <point x="456" y="843"/>
      <point x="596" y="843" type="curve"/>
      <point x="760" y="843"/>
      <point x="810" y="710"/>
      <point x="812" y="564" type="curve"/>
      <point x="812" y="0" type="line"/>
    </contour>
    <contour>
      <point x="882" y="974" type="move" name="top"/>
    </contour>
    <contour>
      <point x="882" y="0" type="move" name="bottom"/>
    </contour>
  </outline>
</glyph>
<glyph name="p" format="1">
  <advance width="1204"/>
  <unicode hex="0070"/>
  <outline>
    <contour>
      <point x="947" y="-23"/>
      <point x="1109" y="186"/>
      <point x="1109" y="509" type="curve" smooth="yes"/>
      <point x="1109" y="821"/>
      <point x="949" y="1000"/>
      <point x="671" y="1000" type="curve"/>
      <point x="526" y="1000"/>
      <point x="392" y="934"/>
      <point x="302" y="820" type="curve"/>
      <point x="299" y="713" type="line"/>
      <point x="408" y="790"/>
      <point x="535" y="835"/>
      <point x="649" y="836" type="curve" smooth="yes"/>
      <point x="830" y="837"/>
      <point x="933" y="719"/>
      <point x="933" y="511" type="curve" smooth="yes"/>
      <point x="933" y="241"/>
      <point x="805" y="130"/>
      <point x="647" y="130" type="curve" smooth="yes"/>
      <point x="536" y="130"/>
      <point x="333" y="179"/>
      <point x="332" y="418" type="curve"/>
      <point x="332" y="548" type="line"/>
      <point x="303" y="397" type="line"/>
      <point x="301" y="233"/>
      <point x="301" y="-23"/>
      <point x="635" y="-23" type="curve" smooth="yes"/>
    </contour>
    <contour>
      <point x="332" y="-470" type="line"/>
      <point x="332" y="743" type="line"/>
      <point x="337" y="822" type="line"/>
      <point x="289" y="974" type="line"/>
      <point x="167" y="974" type="line"/>
      <point x="167" y="-470" type="line"/>
    </contour>
    <contour>
      <point x="602" y="974" type="move" name="top"/>
    </contour>
    <contour>
      <point x="602" y="0" type="move" name="bottom"/>
    </contour>
  </outline>
</glyph>
<glyph name="s" format="1">
  <advance width="869"/>
  <unicode hex="0073"/>
  <outline>
    <contour>
      <point x="658" y="-25"/>
      <point x="779" y="71"/>
      <point x="779" y="263" type="curve"/>
      <point x="777" y="643"/>
      <point x="294" y="528"/>
      <point x="292" y="722" type="curve"/>
      <point x="297" y="808"/>
      <point x="359" y="850"/>
      <point x="478" y="851" type="curve"/>
      <point x="543" y="851"/>
      <point x="614" y="834"/>
      <point x="691" y="800" type="curve"/>
      <point x="748" y="949" type="line"/>
      <point x="670" y="985"/>
      <point x="581" y="1002"/>
      <point x="478" y="1002" type="curve"/>
      <point x="252" y="1002"/>
      <point x="139" y="909"/>
      <point x="137" y="722" type="curve"/>
      <point x="139" y="361"/>
      <point x="621" y="489"/>
      <point x="624" y="263" type="curve"/>
      <point x="623" y="173"/>
      <point x="554" y="128"/>
      <point x="415" y="126" type="curve"/>
      <point x="340" y="127"/>
      <point x="249" y="151"/>
      <point x="140" y="200" type="curve"/>
      <point x="86" y="53" type="line"/>
      <point x="200" y="2"/>
      <point x="309" y="-24"/>
      <point x="415" y="-25" type="curve"/>
    </contour>
    <contour>
      <point x="435" y="974" type="move" name="top"/>
    </contour>
    <contour>
      <point x="425" y="0" type="move" name="bottom"/>
    </contour>
  </outline>
</glyph>
<glyph name="t" format="1">
  <advance width="694"/>
  <unicode hex="0074"/>
  <outline>
    <contour>
      <point x="531" y="-24"/>
      <point x="597" y="-22"/>
      <point x="640" y="-18" type="curve"/>
      <point x="640" y="129" type="line"/>
      <point x="611" y="125"/>
      <point x="572" y="122"/>
      <point x="549" y="122" type="curve" smooth="yes"/>
      <point x="428" y="122"/>
      <point x="373" y="218"/>
      <point x="373" y="302" type="curve" smooth="yes"/>
      <point x="373" y="1323" type="line"/>
      <point x="219" y="1323" type="line"/>
      <point x="219" y="273" type="line" smooth="yes"/>
      <point x="219" y="114"/>
      <point x="315" y="-24"/>
      <point x="508" y="-24" type="curve" smooth="yes"/>
    </contour>
    <contour>
      <point x="43" y="828"/>
      <point x="641" y="828"/>
      <point x="641" y="828" type="curve"/>
      <point x="641" y="973" type="line"/>
      <point x="641" y="973"/>
      <point x="43" y="973"/>
      <point x="43" y="973" type="curve"/>
      <point x="43" y="828" type="line"/>
    </contour>
    <contour>
      <point x="347" y="487" type="move" name="center"/>
    </contour>
    <contour>
      <point x="347" y="974" type="move" name="top"/>
    </contour>
    <contour>
      <point x="554" y="894" type="move" name="topright"/>
    </contour>
    <contour>
      <point x="357" y="0" type="move" name="bottom"/>
    </contour>
  </outline>
</glyph>
<glyph name="u" format="1">
  <advance width="1159"/>
  <unicode hex="0075"/>
  <outline>
    <contour>
      <point x="745" y="-22"/>
      <point x="860" y="118"/>
      <point x="860" y="189" type="curve"/>
      <point x="830" y="362" type="line"/>
      <point x="830" y="181"/>
      <point x="700" y="130"/>
      <point x="569" y="130" type="curve"/>
      <point x="346" y="130"/>
      <point x="308" y="274"/>
      <point x="308" y="419" type="curve"/>
      <point x="308" y="973" type="line"/>
      <point x="144" y="973" type="line"/>
      <point x="144" y="368" type="line"/>
      <point x="144" y="175"/>
      <point x="235" y="-22"/>
      <point x="533" y="-22" type="curve"/>
    </contour>
    <contour>
      <point x="1081" y="28" type="line"/>
      <point x="1029" y="122"/>
      <point x="995" y="223"/>
      <point x="994" y="330" type="curve"/>
      <point x="830" y="328" type="line"/>
      <point x="830" y="198"/>
      <point x="872" y="75"/>
      <point x="936" y="-39" type="curve"/>
    </contour>
    <contour>
      <point x="994" y="974" type="line"/>
      <point x="830" y="974" type="line"/>
      <point x="830" y="328" type="line"/>
      <point x="994" y="211" type="line"/>
    </contour>
    <contour>
      <point x="1043" y="10" type="move" name="ogonek"/>
    </contour>
    <contour>
      <point x="580" y="974" type="move" name="top"/>
    </contour>
    <contour>
      <point x="1139" y="974" type="move" name="topright"/>
    </contour>
    <contour>
      <point x="580" y="0" type="move" name="bottom"/>
    </contour>
  </outline>
</glyph>
<glyph name="v" format="1">
  <advance width="981"/>
  <unicode hex="0076"/>
  <outline>
    <contour>
      <point x="565" y="-5" type="line"/>
      <point x="973" y="974" type="line"/>
      <point x="793" y="974" type="line"/>
      <point x="521" y="301" type="line" smooth="yes"/>
      <point x="513" y="280"/>
      <point x="494" y="187"/>
      <point x="491" y="161" type="curve"/>
      <point x="487" y="161" type="line"/>
      <point x="485" y="182"/>
      <point x="461" y="278"/>
      <point x="451" y="305" type="curve" smooth="yes"/>
      <point x="191" y="974" type="line"/>
      <point x="16" y="974" type="line"/>
      <point x="404" y="-5" type="line"/>
    </contour>
    <contour>
      <point x="490" y="974" type="move" name="top"/>
    </contour>
    <contour>
      <point x="490" y="0" type="move" name="bottom"/>
    </contour>
  </outline>
</glyph>
<glyph name="w" format="1">
  <advance width="1480"/>
  <unicode hex="0077"/>
  <outline>
    <contour>
      <point x="498" y="-5" type="line"/>
      <point x="722" y="654" type="line" smooth="yes"/>
      <point x="728" y="672"/>
      <point x="743" y="734"/>
      <point x="744" y="746" type="curve"/>
      <point x="748" y="746" type="line"/>
      <point x="749" y="734"/>
      <point x="762" y="673"/>
      <point x="768" y="653" type="curve" smooth="yes"/>
      <point x="980" y="-5" type="line"/>
      <point x="1150" y="-5" type="line"/>
      <point x="1457" y="974" type="line"/>
      <point x="1289" y="974" type="line"/>
      <point x="1081" y="277" type="line" smooth="yes"/>
      <point x="1076" y="260"/>
      <point x="1064" y="200"/>
      <point x="1063" y="187" type="curve"/>
      <point x="1055" y="187" type="line"/>
      <point x="1054" y="206"/>
      <point x="1044" y="267"/>
      <point x="1040" y="279" type="curve" smooth="yes"/>
      <point x="824" y="975" type="line"/>
      <point x="674" y="975" type="line"/>
      <point x="442" y="283" type="line" smooth="yes"/>
      <point x="436" y="266"/>
      <point x="425" y="203"/>
      <point x="424" y="188" type="curve"/>
      <point x="416" y="188" type="line"/>
      <point x="415" y="207"/>
      <point x="406" y="267"/>
      <point x="403" y="278" type="curve" smooth="yes"/>
      <point x="191" y="974" type="line"/>
      <point x="24" y="974" type="line"/>
      <point x="334" y="-5" type="line"/>
    </contour>
    <contour>
      <point x="740" y="974" type="move" name="top"/>
    </contour>
    <contour>
      <point x="740" y="0" type="move" name="bottom"/>
    </contour>
  </outline>
</glyph>
<glyph name="x" format="1">
  <advance width="940"/>
  <unicode hex="0078"/>
  <outline>
    <contour>
      <point x="219" y="0" type="line"/>
      <point x="471" y="380" type="line"/>
      <point x="475" y="380" type="line"/>
      <point x="722" y="0" type="line"/>
      <point x="910" y="0" type="line"/>
      <point x="582" y="486" type="line"/>
      <point x="916" y="974" type="line"/>
      <point x="730" y="974" type="line"/>
      <point x="474" y="584" type="line"/>
      <point x="470" y="584" type="line"/>
      <point x="230" y="974" type="line"/>
      <point x="42" y="974" type="line"/>
      <point x="366" y="472" type="line"/>
      <point x="27" y="0" type="line"/>
    </contour>
    <contour>
      <point x="470" y="974" type="move" name="top"/>
    </contour>
    <contour>
      <point x="470" y="0" type="move" name="bottom"/>
    </contour>
  </outline>
</glyph>
<glyph name="y" format="1">
  <advance width="991"/>
  <unicode hex="0079"/>
  <outline>
    <contour>
      <point x="261" y="-450"/>
      <point x="414" y="-431"/>
      <point x="529" y="-138" type="curve" smooth="yes"/>
      <point x="984" y="976" type="line"/>
      <point x="793" y="974" type="line"/>
      <point x="517" y="274" type="line"/>
      <point x="497" y="198" type="line"/>
      <point x="491" y="198" type="line"/>
      <point x="471" y="276" type="line"/>
      <point x="207" y="974" type="line"/>
      <point x="15" y="974" type="line"/>
      <point x="407" y="5" type="line"/>
      <point x="389" y="-42" type="line" smooth="yes"/>
      <point x="326" y="-214"/>
      <point x="242" y="-291"/>
      <point x="73" y="-329" type="curve"/>
      <point x="110" y="-482" type="line"/>
    </contour>
    <contour>
      <point x="495" y="974" type="move" name="top"/>
    </contour>
    <contour>
      <point x="495" y="0" type="move" name="bottom"/>
    </contour>
  </outline>
</glyph>
<glyph name="z" format="1">
  <advance width="926"/>
  <unicode hex="007A"/>
  <outline>
    <contour>
      <point x="874" y="0" type="line"/>
      <point x="874" y="147" type="line"/>
      <point x="302" y="147" type="line"/>
      <point x="870" y="927" type="line"/>
      <point x="870" y="974" type="line"/>
      <point x="80" y="974" type="line"/>
      <point x="80" y="827" type="line"/>
      <point x="611" y="827" type="line"/>
      <point x="53" y="51" type="line"/>
      <point x="53" y="0" type="line"/>
    </contour>
    <contour>
      <point x="463" y="974" type="move" name="top"/>
    </contour>
    <contour>
      <point x="463" y="0" type="move" name="bottom"/>
    </contour>
  </outline>
</glyph>
<glyph name="braceleft" format="1">
  <advance width="618"/>
  <unicode hex="007B"/>
  <outline>
    <contour>
      <point x="555" y="-200" type="line"/>
      <point x="438" y="-197"/>
      <point x="396" y="-140"/>
      <point x="396" y="8" type="curve" smooth="yes"/>
      <point x="396" y="297" type="line" smooth="yes"/>
      <point x="396" y="438"/>
      <point x="346" y="523"/>
      <point x="246" y="553" type="curve"/>
      <point x="246" y="557" type="line"/>
      <point x="346" y="589"/>
      <point x="396" y="675"/>
      <point x="396" y="815" type="curve" smooth="yes"/>
      <point x="396" y="1108" type="line" smooth="yes"/>
      <point x="396" y="1237"/>
      <point x="449" y="1303"/>
      <point x="555" y="1306" type="curve"/>
      <point x="555" y="1434" type="line"/>
      <point x="350" y="1431"/>
      <point x="248" y="1327"/>
      <point x="248" y="1120" type="curve" smooth="yes"/>
      <point x="248" y="828" type="line" smooth="yes"/>
      <point x="248" y="691"/>
      <point x="196" y="619"/>
      <point x="92" y="612" type="curve"/>
      <point x="92" y="496" type="line"/>
      <point x="196" y="489"/>
      <point x="248" y="419"/>
      <point x="248" y="284" type="curve" smooth="yes"/>
      <point x="248" y="-16" type="line" smooth="yes"/>
      <point x="248" y="-220"/>
      <point x="350" y="-323"/>
      <point x="555" y="-326" type="curve"/>
    </contour>
  </outline>
</glyph>
<glyph name="asciitilde" format="1">
  <advance width="1401"/>
  <unicode hex="007E"/>
  <outline>
    <contour>
      <point x="344" y="390" type="line"/>
      <point x="348" y="507"/>
      <point x="397" y="566"/>
      <point x="490" y="566" type="curve" smooth="yes"/>
      <point x="607" y="566"/>
      <point x="743" y="390"/>
      <point x="914" y="390" type="curve" smooth="yes"/>
      <point x="1082" y="390"/>
      <point x="1185" y="503"/>
      <point x="1194" y="700" type="curve"/>
      <point x="1059" y="700" type="line"/>
      <point x="1056" y="593"/>
      <point x="1003" y="522"/>
      <point x="922" y="522" type="curve" smooth="yes"/>
      <point x="797" y="522"/>
      <point x="647" y="700"/>
      <point x="490" y="700" type="curve" smooth="yes"/>
      <point x="321" y="700"/>
      <point x="216" y="581"/>
      <point x="209" y="390" type="curve"/>
    </contour>
  </outline>
</glyph>
<glyph name="cent" format="1">
  <advance width="1104"/>
  <unicode hex="00A2"/>
  <outline>
    <contour>
      <point x="722" y="-209" type="line"/>
      <point x="722" y="1213" type="line"/>
      <point x="607" y="1213" type="line"/>
      <point x="607" y="-209" type="line"/>
    </contour>
    <component base="c" xOffset="89"/>
  </outline>
</glyph>
<glyph name="sterling" format="1">
  <advance width="1104"/>
  <unicode hex="00A3"/>
  <outline>
    <contour>
      <point x="380" y="192"/>
      <point x="476" y="319"/>
      <point x="486" y="469" type="curve" smooth="yes"/>
      <point x="486" y="1011" type="line"/>
      <point x="486" y="1217"/>
      <point x="530" y="1326"/>
      <point x="742" y="1326" type="curve" smooth="yes"/>
      <point x="774" y="1326"/>
      <point x="814" y="1313"/>
      <point x="863" y="1304" type="curve"/>
      <point x="879" y="1429" type="line"/>
      <point x="821" y="1441"/>
      <point x="773" y="1454"/>
      <point x="729" y="1454" type="curve" smooth="yes"/>
      <point x="410" y="1454"/>
      <point x="332" y="1251"/>
      <point x="332" y="1001" type="curve"/>
      <point x="332" y="469" type="line" smooth="yes"/>
      <point x="332" y="343"/>
      <point x="248" y="233"/>
      <point x="80" y="136" type="curve"/>
      <point x="196" y="90" type="line"/>
    </contour>
    <contour>
      <point x="888" y="0" type="line"/>
      <point x="888" y="136" type="line"/>
      <point x="80" y="136" type="line"/>
      <point x="80" y="0" type="line"/>
    </contour>
    <contour>
      <point x="115" y="641"/>
      <point x="751" y="641"/>
      <point x="751" y="641" type="curve"/>
      <point x="751" y="766" type="line"/>
      <point x="115" y="764" type="line"/>
      <point x="115" y="641" type="line"/>
    </contour>
  </outline>
</glyph>
<glyph name="currency" format="1">
  <advance width="1138"/>
  <unicode hex="00A4"/>
  <outline>
    <contour>
      <point x="330" y="261" type="line"/>
      <point x="399" y="210"/>
      <point x="479" y="185"/>
      <point x="570" y="185" type="curve" smooth="yes"/>
      <point x="659" y="185"/>
      <point x="739" y="210"/>
      <point x="809" y="261" type="curve"/>
      <point x="946" y="123" type="line"/>
      <point x="1038" y="219" type="line"/>
      <point x="901" y="353" type="line"/>
      <point x="953" y="430"/>
      <point x="979" y="509"/>
      <point x="979" y="590" type="curve" smooth="yes"/>
      <point x="979" y="673"/>
      <point x="953" y="752"/>
      <point x="901" y="827" type="curve"/>
      <point x="1038" y="963" type="line"/>
      <point x="946" y="1059" type="line"/>
      <point x="807" y="922" type="line"/>
      <point x="735" y="973"/>
      <point x="656" y="999"/>
      <point x="570" y="999" type="curve" smooth="yes"/>
      <point x="483" y="999"/>
      <point x="403" y="973"/>
      <point x="330" y="922" type="curve"/>
      <point x="192" y="1059" type="line"/>
      <point x="100" y="963" type="line"/>
      <point x="238" y="827" type="line"/>
      <point x="187" y="755"/>
      <point x="162" y="676"/>
      <point x="162" y="590" type="curve" smooth="yes"/>
      <point x="162" y="507"/>
      <point x="187" y="428"/>
      <point x="238" y="353" type="curve"/>
      <point x="100" y="219" type="line"/>
      <point x="192" y="123" type="line"/>
    </contour>
    <contour>
      <point x="429" y="337"/>
      <point x="315" y="452"/>
      <point x="315" y="592" type="curve" smooth="yes"/>
      <point x="315" y="732"/>
      <point x="426" y="847"/>
      <point x="570" y="847" type="curve" smooth="yes"/>
      <point x="706" y="847"/>
      <point x="826" y="732"/>
      <point x="826" y="592" type="curve" smooth="yes"/>
      <point x="826" y="452"/>
      <point x="710" y="337"/>
      <point x="570" y="337" type="curve" smooth="yes"/>
    </contour>
  </outline>
</glyph>
<glyph name="yen" format="1">
  <advance width="1104"/>
  <unicode hex="00A5"/>
  <outline>
    <contour>
      <point x="643" y="0" type="line"/>
      <point x="643" y="590" type="line"/>
      <point x="1041" y="1434" type="line"/>
      <point x="875" y="1434" type="line"/>
      <point x="606" y="831" type="line" smooth="yes"/>
      <point x="594" y="804"/>
      <point x="575" y="764"/>
      <point x="569" y="743" type="curve"/>
      <point x="566" y="743" type="line"/>
      <point x="556" y="770"/>
      <point x="535" y="823"/>
      <point x="531" y="831" type="curve" smooth="yes"/>
      <point x="247" y="1434" type="line"/>
      <point x="69" y="1434" type="line"/>
      <point x="485" y="586" type="line"/>
      <point x="485" y="0" type="line"/>
    </contour>
    <contour>
      <point x="971" y="233" type="line"/>
      <point x="971" y="373" type="line"/>
      <point x="129" y="373" type="line"/>
      <point x="129" y="233" type="line"/>
    </contour>
    <contour>
      <point x="971" y="558" type="line"/>
      <point x="971" y="698" type="line"/>
      <point x="129" y="698" type="line"/>
      <point x="129" y="558" type="line"/>
    </contour>
  </outline>
</glyph>
<glyph name="brokenbar" format="1">
  <advance width="490"/>
  <unicode hex="00A6"/>
  <outline>
    <contour>
      <point x="320" y="-482" type="line"/>
      <point x="320" y="370" type="line"/>
      <point x="172" y="370" type="line"/>
      <point x="172" y="-482" type="line"/>
    </contour>
    <contour>
      <point x="320" y="715" type="line"/>
      <point x="320" y="1566" type="line"/>
      <point x="172" y="1566" type="line"/>
      <point x="172" y="715" type="line"/>
    </contour>
  </outline>
</glyph>
<glyph name="section" format="1">
  <advance width="918"/>
  <unicode hex="00A7"/>
  <outline>
    <contour>
      <point x="640" y="-65"/>
      <point x="769" y="40"/>
      <point x="769" y="223" type="curve" smooth="yes"/>
      <point x="767" y="606"/>
      <point x="300" y="473"/>
      <point x="298" y="697" type="curve" smooth="yes"/>
      <point x="303" y="809"/>
      <point x="376" y="874"/>
      <point x="498" y="876" type="curve"/>
      <point x="488" y="987" type="line"/>
      <point x="267" y="987"/>
      <point x="139" y="881"/>
      <point x="137" y="697" type="curve" smooth="yes"/>
      <point x="139" y="345"/>
      <point x="621" y="451"/>
      <point x="624" y="223" type="curve" smooth="yes"/>
      <point x="623" y="150"/>
      <point x="547" y="78"/>
      <point x="415" y="76" type="curve" smooth="yes"/>
      <point x="343" y="77"/>
      <point x="243" y="104"/>
      <point x="140" y="150" type="curve"/>
      <point x="86" y="13" type="line"/>
      <point x="195" y="-36"/>
      <point x="315" y="-64"/>
      <point x="415" y="-65" type="curve" smooth="yes"/>
    </contour>
    <contour>
      <point x="659" y="420"/>
      <point x="769" y="525"/>
      <point x="769" y="708" type="curve" smooth="yes"/>
      <point x="767" y="1121"/>
      <point x="294" y="973"/>
      <point x="292" y="1222" type="curve" smooth="yes"/>
      <point x="297" y="1334"/>
      <point x="365" y="1360"/>
      <point x="478" y="1361" type="curve" smooth="yes"/>
      <point x="540" y="1361"/>
      <point x="618" y="1342"/>
      <point x="691" y="1310" type="curve"/>
      <point x="748" y="1449" type="line"/>
      <point x="675" y="1483"/>
      <point x="577" y="1502"/>
      <point x="478" y="1502" type="curve" smooth="yes"/>
      <point x="263" y="1502"/>
      <point x="139" y="1400"/>
      <point x="137" y="1222" type="curve" smooth="yes"/>
      <point x="139" y="826"/>
      <point x="621" y="954"/>
      <point x="624" y="708" type="curve" smooth="yes"/>
      <point x="622" y="586"/>
      <point x="517" y="514"/>
      <point x="335" y="511" type="curve"/>
      <point x="465" y="420" type="line"/>
    </contour>
  </outline>
</glyph>
<glyph name="dieresis" format="1">
  <advance width="848"/>
  <unicode hex="00A8"/>
  <outline>
    <contour>
      <point x="290" y="1167"/>
      <point x="345" y="1221"/>
      <point x="345" y="1287" type="curve" smooth="yes"/>
      <point x="345" y="1354"/>
      <point x="289" y="1406"/>
      <point x="223" y="1406" type="curve" smooth="yes"/>
      <point x="156" y="1406"/>
      <point x="104" y="1355"/>
      <point x="104" y="1287" type="curve" smooth="yes"/>
      <point x="104" y="1223"/>
      <point x="159" y="1167"/>
      <point x="226" y="1167" type="curve" smooth="yes"/>
    </contour>
    <contour>
      <point x="678" y="1167"/>
      <point x="729" y="1221"/>
      <point x="729" y="1287" type="curve" smooth="yes"/>
      <point x="729" y="1354"/>
      <point x="675" y="1406"/>
      <point x="608" y="1406" type="curve" smooth="yes"/>
      <point x="543" y="1406"/>
      <point x="491" y="1355"/>
      <point x="491" y="1287" type="curve" smooth="yes"/>
      <point x="491" y="1218"/>
      <point x="546" y="1167"/>
      <point x="610" y="1167" type="curve" smooth="yes"/>
    </contour>
  </outline>
</glyph>
<glyph name="copyright" format="1">
  <advance width="1823"/>
  <unicode hex="00A9"/>
  <outline>
    <contour>
      <point x="1325" y="-33"/>
      <point x="1661" y="302"/>
      <point x="1661" y="717" type="curve" smooth="yes"/>
      <point x="1661" y="1132"/>
      <point x="1325" y="1467"/>
      <point x="912" y="1467" type="curve" smooth="yes"/>
      <point x="497" y="1467"/>
      <point x="162" y="1132"/>
      <point x="162" y="717" type="curve" smooth="yes"/>
      <point x="162" y="302"/>
      <point x="497" y="-33"/>
      <point x="912" y="-33" type="curve" smooth="yes"/>
    </contour>
    <contour>
      <point x="569" y="106"/>
      <point x="310" y="369"/>
      <point x="310" y="717" type="curve" smooth="yes"/>
      <point x="310" y="1066"/>
      <point x="569" y="1329"/>
      <point x="913" y="1329" type="curve" smooth="yes"/>
      <point x="1255" y="1329"/>
      <point x="1513" y="1066"/>
      <point x="1513" y="717" type="curve" smooth="yes"/>
      <point x="1513" y="369"/>
      <point x="1255" y="106"/>
      <point x="912" y="106" type="curve" smooth="yes"/>
    </contour>
    <component base="c" xOffset="438" yOffset="295" xScale="0.866" yScale="0.866"/>
  </outline>
</glyph>
<glyph name="guillemetleft" format="1">
  <advance width="1036"/>
  <unicode hex="00AB"/>
  <outline>
    <contour>
      <point x="995" y="151" type="line"/>
      <point x="692" y="487" type="line"/>
      <point x="997" y="831" type="line"/>
      <point x="779" y="831" type="line"/>
      <point x="480" y="487" type="line"/>
      <point x="779" y="151" type="line"/>
    </contour>
    <contour>
      <point x="607" y="151" type="line"/>
      <point x="304" y="487" type="line"/>
      <point x="609" y="831" type="line"/>
      <point x="391" y="831" type="line"/>
      <point x="92" y="487" type="line"/>
      <point x="391" y="151" type="line"/>
    </contour>
  </outline>
</glyph>
<glyph name="logicalnot" format="1">
  <advance width="1401"/>
  <unicode hex="00AC"/>
  <outline>
    <contour>
      <point x="1172" y="254" type="line"/>
      <point x="1172" y="817" type="line"/>
      <point x="232" y="817" type="line"/>
      <point x="232" y="684" type="line"/>
      <point x="1040" y="684" type="line"/>
      <point x="1040" y="254" type="line"/>
    </contour>
  </outline>
</glyph>
<glyph name="registered" format="1">
  <advance width="1823"/>
  <unicode hex="00AE"/>
  <outline>
    <contour>
      <point x="1325" y="-33"/>
      <point x="1661" y="302"/>
      <point x="1661" y="717" type="curve" smooth="yes"/>
      <point x="1661" y="1132"/>
      <point x="1325" y="1467"/>
      <point x="912" y="1467" type="curve" smooth="yes"/>
      <point x="497" y="1467"/>
      <point x="162" y="1132"/>
      <point x="162" y="717" type="curve" smooth="yes"/>
      <point x="162" y="302"/>
      <point x="497" y="-33"/>
      <point x="912" y="-33" type="curve" smooth="yes"/>
    </contour>
    <contour>
      <point x="569" y="106"/>
      <point x="310" y="369"/>
      <point x="310" y="717" type="curve" smooth="yes"/>
      <point x="310" y="1066"/>
      <point x="569" y="1329"/>
      <point x="912" y="1329" type="curve" smooth="yes"/>
      <point x="1255" y="1329"/>
      <point x="1513" y="1066"/>
      <point x="1513" y="717" type="curve" smooth="yes"/>
      <point x="1513" y="369"/>
      <point x="1255" y="106"/>
      <point x="912" y="106" type="curve" smooth="yes"/>
    </contour>
    <contour>
      <point x="1247" y="347" type="line"/>
      <point x="959" y="762" type="line"/>
      <point x="833" y="692" type="line"/>
      <point x="1072" y="347" type="line"/>
    </contour>
    <contour>
      <point x="818" y="347" type="line"/>
      <point x="818" y="641" type="line"/>
      <point x="886" y="641" type="line" smooth="yes"/>
      <point x="1058" y="641"/>
      <point x="1182" y="740"/>
      <point x="1182" y="902" type="curve" smooth="yes"/>
      <point x="1182" y="1055"/>
      <point x="1077" y="1137"/>
      <point x="909" y="1137" type="curve" smooth="yes"/>
      <point x="681" y="1137" type="line"/>
      <point x="681" y="347" type="line"/>
    </contour>
    <contour>
      <point x="818" y="1008" type="line"/>
      <point x="892" y="1009" type="line" smooth="yes"/>
      <point x="986" y="1009"/>
      <point x="1041" y="971"/>
      <point x="1041" y="878" type="curve" smooth="yes"/>
      <point x="1041" y="804"/>
      <point x="978" y="769"/>
      <point x="879" y="769" type="curve" smooth="yes"/>
      <point x="818" y="769" type="line"/>
    </contour>
  </outline>
</glyph>
<glyph name="macron" format="1">
  <advance width="850"/>
  <unicode hex="00AF"/>
  <outline>
    <contour>
      <point x="800" y="1189" type="line"/>
      <point x="800" y="1329" type="line"/>
      <point x="50" y="1329" type="line"/>
      <point x="50" y="1189" type="line"/>
    </contour>
  </outline>
</glyph>
<glyph name="degree" format="1">
  <advance width="772"/>
  <unicode hex="00B0"/>
  <outline>
    <contour>
      <point x="543" y="897"/>
      <point x="662" y="1017"/>
      <point x="662" y="1176" type="curve" smooth="yes"/>
      <point x="662" y="1332"/>
      <point x="542" y="1450"/>
      <point x="383" y="1450" type="curve" smooth="yes"/>
      <point x="226" y="1450"/>
      <point x="108" y="1332"/>
      <point x="108" y="1176" type="curve" smooth="yes"/>
      <point x="108" y="1017"/>
      <point x="227" y="897"/>
      <point x="385" y="897" type="curve" smooth="yes"/>
    </contour>
    <contour>
      <point x="295" y="1014"/>
      <point x="228" y="1084"/>
      <point x="228" y="1176" type="curve" smooth="yes"/>
      <point x="228" y="1265"/>
      <point x="296" y="1333"/>
      <point x="385" y="1333" type="curve" smooth="yes"/>
      <point x="474" y="1333"/>
      <point x="542" y="1265"/>
      <point x="542" y="1176" type="curve" smooth="yes"/>
      <point x="542" y="1084"/>
      <point x="474" y="1014"/>
      <point x="383" y="1014" type="curve" smooth="yes"/>
    </contour>
  </outline>
</glyph>
<glyph name="plusminus" format="1">
  <advance width="1401"/>
  <unicode hex="00B1"/>
  <outline>
    <contour>
      <point x="1172" y="0" type="line"/>
      <point x="1172" y="133" type="line"/>
      <point x="232" y="133" type="line"/>
      <point x="232" y="0" type="line"/>
    </contour>
    <component base="plus" yOffset="125"/>
  </outline>
</glyph>
<glyph name="twosuperior" format="1">
  <advance width="750"/>
  <unicode hex="00B2"/>
  <outline>
    <contour>
      <point x="663" y="885" type="line"/>
      <point x="663" y="1042" type="line"/>
      <point x="314" y="1042" type="line"/>
      <point x="314" y="1137"/>
      <point x="638" y="1240"/>
      <point x="638" y="1494" type="curve" smooth="yes"/>
      <point x="638" y="1864"/>
      <point x="195" y="1734"/>
      <point x="107" y="1719" type="curve"/>
      <point x="133" y="1570" type="line"/>
      <point x="224" y="1589"/>
      <point x="480" y="1659"/>
      <point x="480" y="1479" type="curve" smooth="yes"/>
      <point x="480" y="1285"/>
      <point x="98" y="1202"/>
      <point x="98" y="946" type="curve"/>
      <point x="98" y="885" type="line"/>
    </contour>
  </outline>
</glyph>
<glyph name="threesuperior" format="1">
  <advance width="750"/>
  <unicode hex="00B3"/>
  <outline>
    <contour>
      <point x="538" y="863"/>
      <point x="655" y="960"/>
      <point x="655" y="1106" type="curve" smooth="yes"/>
      <point x="655" y="1211"/>
      <point x="587" y="1298"/>
      <point x="483" y="1327" type="curve"/>
      <point x="483" y="1331" type="line"/>
      <point x="569" y="1363"/>
      <point x="626" y="1451"/>
      <point x="626" y="1553" type="curve" smooth="yes"/>
      <point x="626" y="1674"/>
      <point x="535" y="1754"/>
      <point x="397" y="1754" type="curve" smooth="yes"/>
      <point x="310" y="1754"/>
      <point x="215" y="1739"/>
      <point x="158" y="1717" type="curve"/>
      <point x="178" y="1581" type="line"/>
      <point x="234" y="1601"/>
      <point x="317" y="1615"/>
      <point x="386" y="1615" type="curve" smooth="yes"/>
      <point x="437" y="1615"/>
      <point x="470" y="1580"/>
      <point x="470" y="1526" type="curve" smooth="yes"/>
      <point x="470" y="1443"/>
      <point x="389" y="1388"/>
      <point x="266" y="1388" type="curve"/>
      <point x="270" y="1234" type="line"/>
      <point x="406" y="1234"/>
      <point x="496" y="1185"/>
      <point x="496" y="1111" type="curve" smooth="yes"/>
      <point x="496" y="1052"/>
      <point x="447" y="1014"/>
      <point x="372" y="1014" type="curve" smooth="yes"/>
      <point x="300" y="1014"/>
      <point x="212" y="1025"/>
      <point x="151" y="1042" type="curve"/>
      <point x="131" y="896" type="line"/>
      <point x="189" y="876"/>
      <point x="280" y="863"/>
      <point x="360" y="863" type="curve" smooth="yes"/>
    </contour>
  </outline>
</glyph>
<glyph name="acute" format="1">
  <advance width="578"/>
  <unicode hex="00B4"/>
  <outline>
    <contour>
      <point x="272" y="1218" type="line"/>
      <point x="534" y="1546" type="line"/>
      <point x="338" y="1546" type="line"/>
      <point x="115" y="1218" type="line"/>
    </contour>
  </outline>
</glyph>
<glyph name="micro" format="1">
  <advance width="1182"/>
  <unicode hex="00B5"/>
  <outline>
    <contour>
      <point x="165" y="-396" type="line"/>
      <point x="327" y="-396" type="line"/>
      <point x="327" y="792" type="line"/>
      <point x="165" y="792" type="line"/>
    </contour>
    <component base="u" xOffset="20"/>
  </outline>
</glyph>
<glyph name="paragraph" format="1">
  <advance width="938"/>
  <unicode hex="00B6"/>
  <outline>
    <contour>
      <point x="492" y="0" type="line"/>
      <point x="492" y="1331" type="line"/>
      <point x="600" y="1331" type="line"/>
      <point x="600" y="0" type="line"/>
      <point x="706" y="0" type="line"/>
      <point x="706" y="1331" type="line"/>
      <point x="834" y="1331" type="line"/>
      <point x="834" y="1434" type="line"/>
      <point x="340" y="1434" type="line" smooth="yes"/>
      <point x="197" y="1434"/>
      <point x="84" y="1326"/>
      <point x="84" y="1170" type="curve" smooth="yes"/>
      <point x="84" y="1017"/>
      <point x="211" y="903"/>
      <point x="384" y="903" type="curve"/>
      <point x="384" y="0" type="line"/>
    </contour>
  </outline>
</glyph>
<glyph name="cedilla" format="1">
  <advance width="420"/>
  <unicode hex="00B8"/>
  <outline>
    <contour>
      <point x="299" y="-432"/>
      <point x="391" y="-373"/>
      <point x="391" y="-256" type="curve" smooth="yes"/>
      <point x="391" y="-160"/>
      <point x="314" y="-104"/>
      <point x="191" y="-104" type="curve"/>
      <point x="191" y="70" type="line"/>
      <point x="92" y="70" type="line"/>
      <point x="92" y="-208" type="line"/>
      <point x="113" y="-205"/>
      <point x="126" y="-204"/>
      <point x="133" y="-204" type="curve" smooth="yes"/>
      <point x="206" y="-204"/>
      <point x="242" y="-225"/>
      <point x="242" y="-266" type="curve" smooth="yes"/>
      <point x="242" y="-306"/>
      <point x="202" y="-326"/>
      <point x="121" y="-326" type="curve" smooth="yes"/>
      <point x="103" y="-326"/>
      <point x="80" y="-324"/>
      <point x="51" y="-320" type="curve"/>
      <point x="51" y="-430" type="line"/>
      <point x="69" y="-431"/>
      <point x="91" y="-432"/>
      <point x="116" y="-432" type="curve" smooth="yes"/>
    </contour>
  </outline>
</glyph>
<glyph name="onesuperior" format="1">
  <advance width="719"/>
  <unicode hex="00B9"/>
  <outline>
    <contour>
      <point x="515" y="883" type="line"/>
      <point x="514" y="1746" type="line"/>
      <point x="459" y="1746" type="line"/>
      <point x="105" y="1620" type="line"/>
      <point x="141" y="1487" type="line"/>
      <point x="369" y="1563" type="line"/>
      <point x="369" y="883" type="line"/>
    </contour>
  </outline>
</glyph>
<glyph name="guillemetright" format="1">
  <advance width="1036"/>
  <unicode hex="00BB"/>
  <outline>
    <contour>
      <point x="589" y="487" type="line"/>
      <point x="290" y="831" type="line"/>
      <point x="72" y="831" type="line"/>
      <point x="377" y="487" type="line"/>
      <point x="74" y="151" type="line"/>
      <point x="290" y="151" type="line"/>
    </contour>
    <contour>
      <point x="977" y="487" type="line"/>
      <point x="678" y="831" type="line"/>
      <point x="460" y="831" type="line"/>
      <point x="765" y="487" type="line"/>
      <point x="462" y="151" type="line"/>
      <point x="678" y="151" type="line"/>
    </contour>
  </outline>
</glyph>
<glyph name="AE" format="1">
  <advance width="1762"/>
  <unicode hex="00C6"/>
  <outline>
    <contour>
      <point x="211" y="0" type="line"/>
      <point x="908" y="1283" type="line"/>
      <point x="1047" y="1283" type="line"/>
      <point x="1001" y="1434" type="line"/>
      <point x="821" y="1434" type="line"/>
      <point x="24" y="0" type="line"/>
    </contour>
    <contour>
      <point x="1063" y="312" type="line"/>
      <point x="1063" y="463" type="line"/>
      <point x="341" y="463" type="line"/>
      <point x="341" y="312" type="line"/>
    </contour>
    <component base="E" xOffset="719"/>
  </outline>
</glyph>
<glyph name="multiply" format="1">
  <advance width="1401"/>
  <unicode hex="00D7"/>
  <outline>
    <contour>
      <point x="700" y="504" type="line"/>
      <point x="1040" y="164" type="line"/>
      <point x="1134" y="258" type="line"/>
      <point x="794" y="596" type="line"/>
      <point x="1134" y="936" type="line"/>
      <point x="1040" y="1030" type="line"/>
      <point x="700" y="690" type="line"/>
      <point x="362" y="1030" type="line"/>
      <point x="268" y="936" type="line"/>
      <point x="608" y="596" type="line"/>
      <point x="268" y="258" type="line"/>
      <point x="362" y="164" type="line"/>
    </contour>
  </outline>
</glyph>
<glyph name="Oslash" format="1">
  <advance width="1544"/>
  <unicode hex="00D8"/>
  <outline>
    <contour>
      <point x="1405" y="1428" type="line"/>
      <point x="1327" y="1491" type="line"/>
      <point x="94" y="14" type="line"/>
      <point x="172" y="-51" type="line"/>
    </contour>
    <component base="O"/>
  </outline>
</glyph>
<glyph name="Thorn" format="1">
  <advance width="1147"/>
  <unicode hex="00DE"/>
  <outline>
    <contour>
      <point x="358" y="0" type="line"/>
      <point x="358" y="292" type="line"/>
      <point x="545" y="292" type="line" smooth="yes"/>
      <point x="848" y="292"/>
      <point x="1066" y="468"/>
      <point x="1066" y="756" type="curve" smooth="yes"/>
      <point x="1066" y="1036"/>
      <point x="881" y="1184"/>
      <point x="584" y="1184" type="curve" smooth="yes"/>
      <point x="190" y="1184" type="line"/>
      <point x="190" y="0" type="line"/>
    </contour>
    <contour>
      <point x="357" y="1031" type="line"/>
      <point x="555" y="1032" type="line" smooth="yes"/>
      <point x="767" y="1032"/>
      <point x="891" y="949"/>
      <point x="891" y="748" type="curve" smooth="yes"/>
      <point x="891" y="542"/>
      <point x="751" y="443"/>
      <point x="533" y="443" type="curve" smooth="yes"/>
      <point x="357" y="443" type="line"/>
    </contour>
    <contour>
      <point x="357" y="787" type="line"/>
      <point x="357" y="1434" type="line"/>
      <point x="190" y="1434" type="line"/>
      <point x="190" y="787" type="line"/>
    </contour>
    <contour>
      <point x="574" y="1434" type="move" name="top"/>
    </contour>
    <contour>
      <point x="574" y="0" type="move" name="bottom"/>
    </contour>
  </outline>
</glyph>
<glyph name="germandbls" format="1">
  <advance width="1114"/>
  <unicode hex="00DF"/>
  <outline>
    <contour>
      <point x="630" y="945"/>
      <point x="940" y="847"/>
      <point x="940" y="1218" type="curve" smooth="yes"/>
      <point x="940" y="1407"/>
      <point x="809" y="1532"/>
      <point x="609" y="1532" type="curve" smooth="yes"/>
      <point x="342" y="1532"/>
      <point x="166" y="1367"/>
      <point x="166" y="1116" type="curve" smooth="yes"/>
      <point x="166" y="2" type="line"/>
      <point x="330" y="2" type="line"/>
      <point x="330" y="1102" type="line" smooth="yes"/>
      <point x="330" y="1268"/>
      <point x="437" y="1378"/>
      <point x="600" y="1378" type="curve" smooth="yes"/>
      <point x="711" y="1378"/>
      <point x="784" y="1309"/>
      <point x="784" y="1204" type="curve" smooth="yes"/>
      <point x="784" y="970"/>
      <point x="462" y="1044"/>
      <point x="462" y="758" type="curve" smooth="yes"/>
      <point x="462" y="388"/>
      <point x="875" y="542"/>
      <point x="877" y="293" type="curve" smooth="yes"/>
      <point x="878" y="184"/>
      <point x="828" y="134"/>
      <point x="740" y="132" type="curve" smooth="yes"/>
      <point x="649" y="133"/>
      <point x="569" y="154"/>
      <point x="439" y="209" type="curve"/>
      <point x="411" y="35" type="line"/>
      <point x="536" y="-8"/>
      <point x="624" y="-24"/>
      <point x="740" y="-25" type="curve" smooth="yes"/>
      <point x="933" y="-25"/>
      <point x="1044" y="91"/>
      <point x="1044" y="293" type="curve"/>
      <point x="1042" y="697"/>
      <point x="629" y="524"/>
      <point x="627" y="774" type="curve"/>
    </contour>
  </outline>
</glyph>
<glyph name="ae" format="1">
  <advance width="1704"/>
  <unicode hex="00E6"/>
  <outline>
    <contour>
      <point x="616" y="-23"/>
      <point x="797" y="81"/>
      <point x="797" y="206" type="curve"/>
      <point x="766" y="349" type="line"/>
      <point x="766" y="217"/>
      <point x="650" y="130"/>
      <point x="475" y="130" type="curve"/>
      <point x="349" y="130"/>
      <point x="264" y="189"/>
      <point x="263" y="275" type="curve" smooth="yes"/>
      <point x="262" y="370"/>
      <point x="357" y="427"/>
      <point x="498" y="427" type="curve" smooth="yes"/>
      <point x="617" y="427"/>
      <point x="725" y="387"/>
      <point x="793" y="328" type="curve"/>
      <point x="790" y="468" type="line"/>
      <point x="691" y="538"/>
      <point x="585" y="573"/>
      <point x="473" y="573" type="curve" smooth="yes"/>
      <point x="242" y="573"/>
      <point x="91" y="457"/>
      <point x="91" y="266" type="curve" smooth="yes"/>
      <point x="91" y="64"/>
      <point x="247" y="-23"/>
      <point x="438" y="-23" type="curve"/>
    </contour>
    <contour>
      <point x="901" y="479" type="line"/>
      <point x="900" y="618" type="line" smooth="yes"/>
      <point x="898" y="872"/>
      <point x="771" y="1000"/>
      <point x="529" y="1000" type="curve" smooth="yes"/>
      <point x="461" y="1000"/>
      <point x="364" y="990"/>
      <point x="221" y="974" type="curve"/>
      <point x="249" y="810" type="line"/>
      <point x="345" y="825"/>
      <point x="465" y="834"/>
      <point x="516" y="834" type="curve" smooth="yes"/>
      <point x="658" y="834"/>
      <point x="738" y="768"/>
      <point x="738" y="604" type="curve"/>
      <point x="738" y="479" type="line"/>
    </contour>
    <component base="e" xOffset="641"/>
    <contour>
      <point x="938" y="10" type="move" name="ogonek"/>
    </contour>
    <contour>
      <point x="841" y="0" type="move" name="bottom"/>
    </contour>
    <contour>
      <point x="841" y="974" type="move" name="top"/>
    </contour>
  </outline>
</glyph>
<glyph name="eth" format="1">
  <advance width="1145"/>
  <unicode hex="00F0"/>
  <outline>
    <contour>
      <point x="864" y="-22"/>
      <point x="1048" y="206"/>
      <point x="1048" y="526" type="curve" smooth="yes"/>
      <point x="1048" y="837"/>
      <point x="939" y="1095"/>
      <point x="721" y="1300" type="curve"/>
      <point x="985" y="1430" type="line"/>
      <point x="930" y="1524" type="line"/>
      <point x="641" y="1380" type="line"/>
      <point x="580" y="1432"/>
      <point x="527" y="1475"/>
      <point x="479" y="1509" type="curve"/>
      <point x="370" y="1424" type="line"/>
      <point x="417" y="1389"/>
      <point x="470" y="1352"/>
      <point x="512" y="1315" type="curve"/>
      <point x="242" y="1184" type="line"/>
      <point x="293" y="1086" type="line"/>
      <point x="592" y="1237" type="line"/>
      <point x="664" y="1168"/>
      <point x="730" y="1079"/>
      <point x="790" y="971" type="curve"/>
      <point x="786" y="968" type="line"/>
      <point x="728" y="1020"/>
      <point x="658" y="1046"/>
      <point x="576" y="1046" type="curve" smooth="yes"/>
      <point x="283" y="1046"/>
      <point x="96" y="824"/>
      <point x="96" y="500" type="curve" smooth="yes"/>
      <point x="96" y="177"/>
      <point x="272" y="-22"/>
      <point x="568" y="-22" type="curve" smooth="yes"/>
    </contour>
    <contour>
      <point x="381" y="114"/>
      <point x="264" y="265"/>
      <point x="264" y="506" type="curve" smooth="yes"/>
      <point x="264" y="755"/>
      <point x="385" y="910"/>
      <point x="582" y="910" type="curve" smooth="yes"/>
      <point x="781" y="910"/>
      <point x="880" y="777"/>
      <point x="880" y="510" type="curve" smooth="yes"/>
      <point x="880" y="270"/>
      <point x="763" y="114"/>
      <point x="578" y="114" type="curve" smooth="yes"/>
    </contour>
  </outline>
</glyph>
<glyph name="divide" format="1">
  <advance width="1401"/>
  <unicode hex="00F7"/>
  <outline>
    <contour>
      <point x="1172" y="530" type="line"/>
      <point x="1172" y="664" type="line"/>
      <point x="232" y="664" type="line"/>
      <point x="232" y="530" type="line"/>
    </contour>
    <contour>
      <point x="761" y="112"/>
      <point x="805" y="157"/>
      <point x="805" y="217" type="curve" smooth="yes"/>
      <point x="805" y="290"/>
      <point x="771" y="326"/>
      <point x="704" y="326" type="curve" smooth="yes"/>
      <point x="643" y="326"/>
      <point x="598" y="275"/>
      <point x="598" y="215" type="curve" smooth="yes"/>
      <point x="598" y="158"/>
      <point x="645" y="112"/>
      <point x="704" y="112" type="curve" smooth="yes"/>
    </contour>
    <contour>
      <point x="764" y="868"/>
      <point x="811" y="912"/>
      <point x="811" y="975" type="curve" smooth="yes"/>
      <point x="811" y="1046"/>
      <point x="777" y="1082"/>
      <point x="708" y="1082" type="curve" smooth="yes"/>
      <point x="647" y="1082"/>
      <point x="604" y="1033"/>
      <point x="604" y="973" type="curve" smooth="yes"/>
      <point x="604" y="914"/>
      <point x="649" y="868"/>
      <point x="708" y="868" type="curve" smooth="yes"/>
    </contour>
  </outline>
</glyph>
<glyph name="oslash" format="1">
  <advance width="1200"/>
  <unicode hex="00F8"/>
  <outline>
    <contour>
      <point x="1116" y="940" type="line"/>
      <point x="1037" y="1015" type="line"/>
      <point x="105" y="35" type="line"/>
      <point x="183" y="-38" type="line"/>
    </contour>
    <component base="o"/>
  </outline>
</glyph>
<glyph name="thorn" format="1">
  <advance width="1204"/>
  <unicode hex="00FE"/>
  <outline>
    <contour>
      <point x="332" y="448" type="line"/>
      <point x="332" y="1434" type="line"/>
      <point x="169" y="1434" type="line"/>
      <point x="169" y="448" type="line"/>
    </contour>
    <component base="p"/>
  </outline>
</glyph>
<glyph name="Aogonek" format="1">
  <advance width="1321"/>
  <unicode hex="0104"/>
  <outline>
    <contour>
      <point x="1201" y="-400"/>
      <point x="1239" y="-396"/>
      <point x="1252" y="-387" type="curve"/>
      <point x="1236" y="-270" type="line"/>
      <point x="1221" y="-275"/>
      <point x="1199" y="-277"/>
      <point x="1166" y="-277" type="curve" smooth="yes"/>
      <point x="1100" y="-277"/>
      <point x="1068" y="-249"/>
      <point x="1068" y="-193" type="curve" smooth="yes"/>
      <point x="1068" y="-146"/>
      <point x="1144" y="-32"/>
      <point x="1300" y="0" type="curve"/>
      <point x="1114" y="0" type="line"/>
      <point x="1044" y="-26"/>
      <point x="932" y="-136"/>
      <point x="932" y="-240" type="curve" smooth="yes"/>
      <point x="932" y="-347"/>
      <point x="1001" y="-400"/>
      <point x="1140" y="-400" type="curve" smooth="yes"/>
    </contour>
    <component base="A"/>
    <contour>
      <point x="1189" y="10" type="move" name="_ogonek"/>
    </contour>
  </outline>
</glyph>
<glyph name="aogonek" format="1">
  <advance width="1042"/>
  <unicode hex="0105"/>
  <outline>
    <contour>
      <point x="922" y="-400"/>
      <point x="953" y="-396"/>
      <point x="977" y="-387" type="curve"/>
      <point x="962" y="-260" type="line"/>
      <point x="945" y="-269"/>
      <point x="926" y="-273"/>
      <point x="906" y="-273" type="curve" smooth="yes"/>
      <point x="847" y="-273"/>
      <point x="818" y="-243"/>
      <point x="818" y="-183" type="curve" smooth="yes"/>
      <point x="818" y="-132"/>
      <point x="874" y="-62"/>
      <point x="987" y="28" type="curve"/>
      <point x="868" y="28" type="line"/>
      <point x="744" y="-59"/>
      <point x="682" y="-145"/>
      <point x="682" y="-230" type="curve" smooth="yes"/>
      <point x="682" y="-344"/>
      <point x="748" y="-400"/>
      <point x="880" y="-400" type="curve" smooth="yes"/>
    </contour>
    <component base="a"/>
  </outline>
</glyph>
<glyph name="eogonek" format="1">
  <advance width="1071"/>
  <unicode hex="0119"/>
  <outline>
    <contour>
      <point x="908" y="-400"/>
      <point x="948" y="-388"/>
      <point x="974" y="-365" type="curve"/>
      <point x="933" y="-250" type="line"/>
      <point x="922" y="-265"/>
      <point x="903" y="-273"/>
      <point x="882" y="-273" type="curve" smooth="yes"/>
      <point x="810" y="-273"/>
      <point x="774" y="-243"/>
      <point x="774" y="-183" type="curve" smooth="yes"/>
      <point x="774" y="-126"/>
      <point x="839" y="-50"/>
      <point x="970" y="48" type="curve"/>
      <point x="851" y="48" type="line"/>
      <point x="709" y="-48"/>
      <point x="638" y="-140"/>
      <point x="638" y="-230" type="curve" smooth="yes"/>
      <point x="638" y="-344"/>
      <point x="710" y="-400"/>
      <point x="856" y="-400" type="curve" smooth="yes"/>
    </contour>
    <component base="e"/>
  </outline>
</glyph>
<glyph name="idotless" format="1">
  <advance width="496"/>
  <unicode hex="0131"/>
  <outline>
    <contour>
      <point x="330" y="0" type="line"/>
      <point x="330" y="974" type="line"/>
      <point x="166" y="974" type="line"/>
      <point x="166" y="0" type="line"/>
    </contour>
    <contour>
      <point x="260" y="10" type="move" name="ogonek"/>
    </contour>
    <contour>
      <point x="248" y="0" type="move" name="bottom"/>
    </contour>
    <contour>
      <point x="248" y="974" type="move" name="top"/>
    </contour>
  </outline>
</glyph>
<glyph name="Lslash" format="1">
  <advance width="964"/>
  <unicode hex="0141"/>
  <outline>
    <contour>
      <point x="684" y="852" type="line"/>
      <point x="684" y="1006" type="line"/>
      <point x="33" y="602" type="line"/>
      <point x="33" y="450" type="line"/>
    </contour>
    <component base="L"/>
  </outline>
</glyph>
<glyph name="lslash" format="1">
  <advance width="561"/>
  <unicode hex="0142"/>
  <outline>
    <contour>
      <point x="530" y="811" type="line"/>
      <point x="530" y="968" type="line"/>
      <point x="22" y="616" type="line"/>
      <point x="22" y="459" type="line"/>
    </contour>
    <component base="l" xOffset="30"/>
  </outline>
</glyph>
<glyph name="Eng" format="1">
  <advance width="1532"/>
  <unicode hex="014A"/>
  <outline>
    <contour>
      <point x="354" y="0" type="line"/>
      <point x="354" y="1037" type="line" smooth="yes"/>
      <point x="354" y="1101"/>
      <point x="352" y="1224"/>
      <point x="346" y="1255" type="curve"/>
      <point x="352" y="1255" type="line"/>
      <point x="363" y="1226"/>
      <point x="386" y="1171"/>
      <point x="404" y="1145" type="curve" smooth="yes"/>
      <point x="1181" y="0" type="line"/>
      <point x="1345" y="0" type="line"/>
      <point x="1344" y="1434" type="line"/>
      <point x="1178" y="1434" type="line"/>
      <point x="1178" y="484" type="line" smooth="yes"/>
      <point x="1178" y="411"/>
      <point x="1182" y="306"/>
      <point x="1189" y="254" type="curve"/>
      <point x="1185" y="254" type="line"/>
      <point x="1178" y="270"/>
      <point x="1143" y="341"/>
      <point x="1124" y="370" type="curve" smooth="yes"/>
      <point x="406" y="1435" type="line"/>
      <point x="188" y="1435" type="line"/>
      <point x="188" y="0" type="line"/>
    </contour>
    <contour>
      <point x="1141" y="-468"/>
      <point x="1345" y="-343"/>
      <point x="1345" y="1" type="curve" smooth="yes"/>
      <point x="1345" y="114" type="line"/>
      <point x="1178" y="58" type="line"/>
      <point x="1178" y="-185"/>
      <point x="1112" y="-287"/>
      <point x="856" y="-322" type="curve"/>
      <point x="877" y="-482" type="line"/>
    </contour>
  </outline>
</glyph>
<glyph name="eng" format="1">
  <advance width="1159"/>
  <unicode hex="014B"/>
  <outline>
    <contour>
      <point x="812" y="-468"/>
      <point x="1015" y="-344"/>
      <point x="1015" y="0" type="curve" smooth="yes"/>
      <point x="1015" y="134" type="line"/>
      <point x="852" y="134" type="line"/>
      <point x="852" y="134"/>
      <point x="852" y="58"/>
      <point x="852" y="58" type="curve"/>
      <point x="852" y="-185"/>
      <point x="786" y="-287"/>
      <point x="529" y="-322" type="curve"/>
      <point x="550" y="-482" type="line"/>
    </contour>
    <component base="n"/>
  </outline>
</glyph>
<glyph name="OE" format="1">
  <advance width="1906"/>
  <unicode hex="0152"/>
  <outline>
    <contour>
      <point x="908" y="-25"/>
      <point x="1044" y="0"/>
      <point x="1152" y="0" type="curve"/>
      <point x="1152" y="195" type="line"/>
      <point x="1065" y="157"/>
      <point x="930" y="135"/>
      <point x="750" y="135" type="curve" smooth="yes"/>
      <point x="442" y="135"/>
      <point x="276" y="364"/>
      <point x="276" y="712" type="curve" smooth="yes"/>
      <point x="276" y="1063"/>
      <point x="467" y="1296"/>
      <point x="820" y="1296" type="curve" smooth="yes"/>
      <point x="969" y="1296"/>
      <point x="1080" y="1271"/>
      <point x="1152" y="1228" type="curve"/>
      <point x="1152" y="1434" type="line"/>
      <point x="1062" y="1434"/>
      <point x="950" y="1457"/>
      <point x="820" y="1457" type="curve" smooth="yes"/>
      <point x="367" y="1457"/>
      <point x="92" y="1136"/>
      <point x="92" y="712" type="curve" smooth="yes"/>
      <point x="92" y="290"/>
      <point x="340" y="-25"/>
      <point x="750" y="-25" type="curve" smooth="yes"/>
    </contour>
    <component base="E" xOffset="862"/>
  </outline>
</glyph>
<glyph name="uogonek" format="1">
  <advance width="1159"/>
  <unicode hex="0173"/>
  <outline>
    <contour>
      <point x="1021" y="-400"/>
      <point x="1054" y="-396"/>
      <point x="1078" y="-387" type="curve"/>
      <point x="1048" y="-260" type="line"/>
      <point x="1033" y="-269"/>
      <point x="1016" y="-273"/>
      <point x="992" y="-273" type="curve" smooth="yes"/>
      <point x="937" y="-273"/>
      <point x="914" y="-246"/>
      <point x="914" y="-183" type="curve" smooth="yes"/>
      <point x="914" y="-131"/>
      <point x="964" y="-68"/>
      <point x="1081" y="28" type="curve"/>
      <point x="962" y="38" type="line"/>
      <point x="833" y="-67"/>
      <point x="778" y="-153"/>
      <point x="778" y="-250" type="curve" smooth="yes"/>
      <point x="778" y="-340"/>
      <point x="853" y="-400"/>
      <point x="966" y="-400" type="curve" smooth="yes"/>
    </contour>
    <component base="u"/>
    <contour>
      <point x="1043" y="10" type="move" name="_ogonek"/>
    </contour>
  </outline>
</glyph>
<glyph name="florin" format="1">
  <advance width="1104"/>
  <unicode hex="0192"/>
  <outline>
    <contour>
      <point x="377" y="-278"/>
      <point x="493" y="-139"/>
      <point x="532" y="140" type="curve" smooth="yes"/>
      <point x="622" y="788" type="line"/>
      <point x="809" y="788" type="line"/>
      <point x="809" y="926" type="line"/>
      <point x="643" y="926" type="line"/>
      <point x="674" y="1134" type="line" smooth="yes"/>
      <point x="690" y="1241"/>
      <point x="747" y="1294"/>
      <point x="844" y="1294" type="curve" smooth="yes"/>
      <point x="873" y="1294"/>
      <point x="899" y="1290"/>
      <point x="922" y="1280" type="curve"/>
      <point x="952" y="1415" type="line"/>
      <point x="917" y="1428"/>
      <point x="879" y="1434"/>
      <point x="836" y="1434" type="curve" smooth="yes"/>
      <point x="657" y="1434"/>
      <point x="533" y="1320"/>
      <point x="510" y="1145" type="curve" smooth="yes"/>
      <point x="482" y="926" type="line"/>
      <point x="358" y="926" type="line"/>
      <point x="358" y="788" type="line"/>
      <point x="461" y="788" type="line"/>
      <point x="370" y="152" type="line" smooth="yes"/>
      <point x="343" y="-43"/>
      <point x="280" y="-140"/>
      <point x="180" y="-140" type="curve" smooth="yes"/>
      <point x="157" y="-140"/>
      <point x="137" y="-137"/>
      <point x="120" y="-132" type="curve"/>
      <point x="84" y="-262" type="line"/>
      <point x="127" y="-273"/>
      <point x="161" y="-278"/>
      <point x="184" y="-278" type="curve" smooth="yes"/>
    </contour>
  </outline>
</glyph>
<glyph name="jdotless" format="1">
  <advance width="496"/>
  <unicode hex="0237"/>
  <outline>
    <contour>
      <point x="127" y="-467"/>
      <point x="330" y="-338"/>
      <point x="330" y="20" type="curve" smooth="yes"/>
      <point x="330" y="974" type="line"/>
      <point x="166" y="974" type="line"/>
      <point x="166" y="974"/>
      <point x="166" y="58"/>
      <point x="166" y="58" type="curve"/>
      <point x="166" y="-185"/>
      <point x="100" y="-287"/>
      <point x="-156" y="-322" type="curve"/>
      <point x="-135" y="-482" type="line"/>
    </contour>
    <contour>
      <point x="248" y="974" type="move" name="top"/>
    </contour>
    <contour>
      <point x="248" y="0" type="move" name="bottom"/>
    </contour>
  </outline>
</glyph>
<glyph name="circumflex" format="1">
  <advance width="760"/>
  <unicode hex="02C6"/>
  <outline>
    <contour>
      <point x="225" y="1218" type="line"/>
      <point x="370" y="1428" type="line"/>
      <point x="514" y="1218" type="line"/>
      <point x="656" y="1218" type="line"/>
      <point x="440" y="1550" type="line"/>
      <point x="307" y="1550" type="line"/>
      <point x="92" y="1218" type="line"/>
    </contour>
  </outline>
</glyph>
<glyph name="caron" format="1">
  <advance width="760"/>
  <unicode hex="02C7"/>
  <outline>
    <contour>
      <point x="450" y="1218" type="line"/>
      <point x="664" y="1548" type="line"/>
      <point x="545" y="1548" type="line"/>
      <point x="381" y="1319" type="line"/>
      <point x="217" y="1548" type="line"/>
      <point x="102" y="1548" type="line"/>
      <point x="318" y="1218" type="line"/>
    </contour>
  </outline>
</glyph>
<glyph name="breve" format="1">
  <advance width="622"/>
  <unicode hex="02D8"/>
  <outline>
    <contour>
      <point x="456" y="1208"/>
      <point x="573" y="1313"/>
      <point x="586" y="1470" type="curve"/>
      <point x="444" y="1470" type="line"/>
      <point x="434" y="1387"/>
      <point x="379" y="1335"/>
      <point x="309" y="1335" type="curve" smooth="yes"/>
      <point x="227" y="1335"/>
      <point x="183" y="1380"/>
      <point x="177" y="1470" type="curve"/>
      <point x="37" y="1470" type="line"/>
      <point x="44" y="1312"/>
      <point x="151" y="1208"/>
      <point x="307" y="1208" type="curve" smooth="yes"/>
    </contour>
  </outline>
</glyph>
<glyph name="dotaccent" format="1">
  <advance width="412"/>
  <unicode hex="02D9"/>
  <outline>
    <contour>
      <point x="274" y="1182"/>
      <point x="326" y="1236"/>
      <point x="326" y="1302" type="curve" smooth="yes"/>
      <point x="326" y="1369"/>
      <point x="274" y="1419"/>
      <point x="207" y="1419" type="curve" smooth="yes"/>
      <point x="141" y="1419"/>
      <point x="87" y="1366"/>
      <point x="87" y="1302" type="curve" smooth="yes"/>
      <point x="87" y="1235"/>
      <point x="143" y="1182"/>
      <point x="207" y="1182" type="curve" smooth="yes"/>
    </contour>
  </outline>
</glyph>
<glyph name="ring" format="1">
  <advance width="574"/>
  <unicode hex="02DA"/>
  <outline>
    <contour>
      <point x="404" y="1176"/>
      <point x="494" y="1260"/>
      <point x="494" y="1372" type="curve" smooth="yes"/>
      <point x="494" y="1481"/>
      <point x="407" y="1564"/>
      <point x="291" y="1564" type="curve" smooth="yes"/>
      <point x="172" y="1564"/>
      <point x="82" y="1479"/>
      <point x="82" y="1366" type="curve" smooth="yes"/>
      <point x="82" y="1258"/>
      <point x="169" y="1176"/>
      <point x="284" y="1176" type="curve" smooth="yes"/>
    </contour>
    <contour>
      <point x="236" y="1278"/>
      <point x="196" y="1318"/>
      <point x="196" y="1370" type="curve" smooth="yes"/>
      <point x="196" y="1423"/>
      <point x="236" y="1463"/>
      <point x="288" y="1463" type="curve" smooth="yes"/>
      <point x="343" y="1463"/>
      <point x="384" y="1423"/>
      <point x="384" y="1370" type="curve" smooth="yes"/>
      <point x="384" y="1318"/>
      <point x="343" y="1278"/>
      <point x="288" y="1278" type="curve" smooth="yes"/>
    </contour>
  </outline>
</glyph>
<glyph name="ogonek" format="1">
  <advance width="379"/>
  <unicode hex="02DB"/>
  <outline>
    <contour>
      <point x="341" y="-400"/>
      <point x="379" y="-396"/>
      <point x="392" y="-387" type="curve"/>
      <point x="376" y="-270" type="line"/>
      <point x="361" y="-275"/>
      <point x="339" y="-277"/>
      <point x="306" y="-277" type="curve" smooth="yes"/>
      <point x="240" y="-277"/>
      <point x="208" y="-249"/>
      <point x="208" y="-193" type="curve" smooth="yes"/>
      <point x="208" y="-146"/>
      <point x="251" y="-82"/>
      <point x="338" y="0" type="curve"/>
      <point x="214" y="0" type="line"/>
      <point x="159" y="-56"/>
      <point x="72" y="-136"/>
      <point x="72" y="-240" type="curve" smooth="yes"/>
      <point x="72" y="-347"/>
      <point x="141" y="-400"/>
      <point x="280" y="-400" type="curve" smooth="yes"/>
    </contour>
  </outline>
</glyph>
<glyph name="tilde" format="1">
  <advance width="690"/>
  <unicode hex="02DC"/>
  <outline>
    <contour>
      <point x="607" y="1195"/>
      <point x="676" y="1293"/>
      <point x="676" y="1433" type="curve"/>
      <point x="558" y="1433" type="line"/>
      <point x="558" y="1369"/>
      <point x="533" y="1337"/>
      <point x="484" y="1337" type="curve" smooth="yes"/>
      <point x="389" y="1337"/>
      <point x="322" y="1438"/>
      <point x="217" y="1438" type="curve" smooth="yes"/>
      <point x="102" y="1438"/>
      <point x="35" y="1345"/>
      <point x="35" y="1202" type="curve"/>
      <point x="149" y="1202" type="line"/>
      <point x="149" y="1264"/>
      <point x="171" y="1295"/>
      <point x="217" y="1295" type="curve" smooth="yes"/>
      <point x="301" y="1295"/>
      <point x="394" y="1195"/>
      <point x="498" y="1195" type="curve" smooth="yes"/>
    </contour>
  </outline>
</glyph>
<glyph name="hungarumlaut" format="1">
  <advance width="664"/>
  <unicode hex="02DD"/>
  <outline>
    <contour>
      <point x="402" y="1218" type="line"/>
      <point x="647" y="1536" type="line"/>
      <point x="514" y="1536" type="line"/>
      <point x="305" y="1218" type="line"/>
    </contour>
    <contour>
      <point x="160" y="1218" type="line"/>
      <point x="400" y="1536" type="line"/>
      <point x="270" y="1536" type="line"/>
      <point x="64" y="1218" type="line"/>
    </contour>
  </outline>
</glyph>
<glyph name="gravecomb" format="1">
  <advance width="549"/>
  <unicode hex="0300"/>
  <outline>
    <component base="grave"/>
    <contour>
      <point x="279" y="1546" type="move" name="top"/>
    </contour>
    <contour>
      <point x="412" y="974" type="move" name="_top"/>
    </contour>
  </outline>
</glyph>
<glyph name="acutecomb" format="1">
  <advance width="549"/>
  <unicode hex="0301"/>
  <outline>
    <component base="acute" xOffset="-20"/>
    <contour>
      <point x="212" y="1546" type="move" name="top"/>
    </contour>
    <contour>
      <point x="201" y="974" type="move" name="_top"/>
    </contour>
  </outline>
</glyph>
<glyph name="tildecomb" format="1">
  <advance width="690"/>
  <unicode hex="0303"/>
  <outline>
    <component base="tilde"/>
    <contour>
      <point x="358" y="1458" type="move" name="top"/>
    </contour>
    <contour>
      <point x="356" y="974" type="move" name="_top"/>
    </contour>
  </outline>
</glyph>
<glyph name="brevecomb" format="1">
  <advance width="622"/>
  <unicode hex="0306"/>
  <outline>
    <component base="breve"/>
    <contour>
      <point x="314" y="1470" type="move" name="top"/>
    </contour>
    <contour>
      <point x="312" y="974" type="move" name="_top"/>
    </contour>
  </outline>
</glyph>
<glyph name="dotaccentcomb" format="1">
  <advance width="412"/>
  <unicode hex="0307"/>
  <outline>
    <component base="dotaccent"/>
    <contour>
      <point x="209" y="1413" type="move" name="top"/>
    </contour>
    <contour>
      <point x="207" y="974" type="move" name="_top"/>
    </contour>
  </outline>
</glyph>
<glyph name="dieresiscomb" format="1">
  <advance width="848"/>
  <unicode hex="0308"/>
  <outline>
    <component base="dieresis"/>
    <contour>
      <point x="419" y="1415" type="move" name="top"/>
    </contour>
    <contour>
      <point x="417" y="974" type="move" name="_top"/>
    </contour>
  </outline>
</glyph>
<glyph name="ringcomb" format="1">
  <advance width="574"/>
  <unicode hex="030A"/>
  <outline>
    <component base="ring" yOffset="-30"/>
    <contour>
      <point x="290" y="1564" type="move" name="top"/>
    </contour>
    <contour>
      <point x="288" y="974" type="move" name="_top"/>
    </contour>
  </outline>
</glyph>
<glyph name="hungarumlautcomb" format="1">
  <advance width="664"/>
  <unicode hex="030B"/>
  <outline>
    <component base="hungarumlaut"/>
    <contour>
      <point x="246" y="974" type="move" name="_top"/>
    </contour>
  </outline>
</glyph>
<glyph name="commaturnedabovecomb" format="1">
  <advance width="444"/>
  <unicode hex="0312"/>
  <outline>
    <contour>
      <point x="200" y="1517"/>
      <point x="142" y="1334"/>
      <point x="142" y="1180" type="curve"/>
      <point x="302" y="1180" type="line"/>
      <point x="302" y="1332"/>
      <point x="329" y="1420"/>
      <point x="409" y="1572" type="curve"/>
      <point x="292" y="1642" type="line"/>
    </contour>
    <contour>
      <point x="283" y="1672" type="move" name="top"/>
    </contour>
    <contour>
      <point x="231" y="974" type="move" name="_top"/>
    </contour>
  </outline>
</glyph>
<glyph name="commaaccentcomb" format="1">
  <advance width="444"/>
  <unicode hex="0326"/>
  <outline>
    <component base="comma" yOffset="-353"/>
    <contour>
      <point x="235" y="0" type="move" name="_bottom"/>
    </contour>
    <contour>
      <point x="180" y="-617" type="move" name="bottom"/>
    </contour>
  </outline>
</glyph>
<glyph name="cedillacomb" format="1">
  <advance width="420"/>
  <unicode hex="0327"/>
  <outline>
    <component base="cedilla" xOffset="77"/>
    <contour>
      <point x="221" y="0" type="move" name="_bottom"/>
    </contour>
    <contour>
      <point x="223" y="-432" type="move" name="bottom"/>
    </contour>
  </outline>
</glyph>
<glyph name="ogonekcomb" format="1">
  <advance width="379"/>
  <unicode hex="0328"/>
  <outline>
    <component base="ogonek"/>
    <contour>
      <point x="268" y="10" type="move" name="_ogonek"/>
    </contour>
  </outline>
</glyph>
<glyph name="strokeshortoverlaycomb" format="1">
  <advance width="0"/>
  <unicode hex="0335"/>
  <outline>
    <contour>
      <point x="691" y="628" type="line"/>
      <point x="691" y="773" type="line"/>
      <point x="93" y="773" type="line"/>
      <point x="93" y="628" type="line"/>
    </contour>
  </outline>
</glyph>
<glyph name="strokelongoverlaycomb" format="1">
  <advance width="0"/>
  <unicode hex="0336"/>
  <outline>
    <contour>
      <point x="1426" y="998" type="line"/>
      <point x="1426" y="1150" type="line"/>
      <point x="28" y="1150" type="line"/>
      <point x="28" y="998" type="line"/>
    </contour>
  </outline>
</glyph>
<glyph name="quoteleft" format="1">
  <advance width="469"/>
  <unicode hex="2018"/>
  <outline>
    <contour>
      <point x="147" y="1346"/>
      <point x="85" y="1151"/>
      <point x="85" y="987" type="curve"/>
      <point x="265" y="987" type="line"/>
      <point x="265" y="1151"/>
      <point x="294" y="1245"/>
      <point x="382" y="1409" type="curve"/>
      <point x="245" y="1479" type="line"/>
    </contour>
  </outline>
</glyph>
<glyph name="quotedblleft" format="1">
  <advance width="772"/>
  <unicode hex="201C"/>
  <outline>
    <contour>
      <point x="147" y="1346"/>
      <point x="85" y="1151"/>
      <point x="85" y="987" type="curve"/>
      <point x="265" y="987" type="line"/>
      <point x="265" y="1151"/>
      <point x="294" y="1245"/>
      <point x="382" y="1409" type="curve"/>
      <point x="245" y="1479" type="line"/>
    </contour>
    <contour>
      <point x="452" y="1346"/>
      <point x="390" y="1151"/>
      <point x="390" y="987" type="curve"/>
      <point x="570" y="987" type="line"/>
      <point x="570" y="1151"/>
      <point x="599" y="1245"/>
      <point x="687" y="1409" type="curve"/>
      <point x="550" y="1479" type="line"/>
    </contour>
  </outline>
</glyph>
<glyph name="quotedblright" format="1">
  <advance width="772"/>
  <unicode hex="201D"/>
  <outline>
    <contour>
      <point x="633" y="1098"/>
      <point x="695" y="1293"/>
      <point x="695" y="1457" type="curve"/>
      <point x="515" y="1457" type="line"/>
      <point x="515" y="1293"/>
      <point x="486" y="1199"/>
      <point x="398" y="1035" type="curve"/>
      <point x="535" y="965" type="line"/>
    </contour>
    <contour>
      <point x="328" y="1098"/>
      <point x="390" y="1293"/>
      <point x="390" y="1457" type="curve"/>
      <point x="210" y="1457" type="line"/>
      <point x="210" y="1293"/>
      <point x="181" y="1199"/>
      <point x="93" y="1035" type="curve"/>
      <point x="230" y="965" type="line"/>
    </contour>
  </outline>
</glyph>
<glyph name="dagger" format="1">
  <advance width="768"/>
  <unicode hex="2020"/>
  <outline>
    <contour>
      <point x="728" y="948" type="line"/>
      <point x="465" y="968" type="line"/>
      <point x="433" y="342" type="line"/>
      <point x="334" y="342" type="line"/>
      <point x="306" y="968" type="line"/>
      <point x="48" y="948" type="line"/>
      <point x="48" y="1104" type="line"/>
      <point x="326" y="1084" type="line"/>
      <point x="296" y="1434" type="line"/>
      <point x="475" y="1434" type="line"/>
      <point x="445" y="1084" type="line"/>
      <point x="728" y="1104" type="line"/>
    </contour>
  </outline>
</glyph>
<glyph name="daggerdbl" format="1">
  <advance width="768"/>
  <unicode hex="2021"/>
  <outline>
    <contour>
      <point x="728" y="988" type="line"/>
      <point x="465" y="1008" type="line"/>
      <point x="415" y="682" type="line"/>
      <point x="356" y="682" type="line"/>
      <point x="306" y="1008" type="line"/>
      <point x="48" y="988" type="line"/>
      <point x="48" y="1144" type="line"/>
      <point x="326" y="1124" type="line"/>
      <point x="296" y="1434" type="line"/>
      <point x="475" y="1434" type="line"/>
      <point x="445" y="1124" type="line"/>
      <point x="728" y="1144" type="line"/>
    </contour>
    <contour>
      <point x="445" y="439" type="line"/>
      <point x="475" y="129" type="line"/>
      <point x="296" y="129" type="line"/>
      <point x="326" y="439" type="line"/>
      <point x="48" y="419" type="line"/>
      <point x="48" y="575" type="line"/>
      <point x="306" y="555" type="line"/>
      <point x="356" y="881" type="line"/>
      <point x="415" y="881" type="line"/>
      <point x="465" y="555" type="line"/>
      <point x="728" y="575" type="line"/>
      <point x="728" y="419" type="line"/>
    </contour>
  </outline>
</glyph>
<glyph name="bullet" format="1">
  <advance width="832"/>
  <unicode hex="2022"/>
  <outline>
    <contour>
      <point x="279" y="268"/>
      <point x="164" y="379"/>
      <point x="164" y="518" type="curve" smooth="yes"/>
      <point x="164" y="655"/>
      <point x="279" y="772"/>
      <point x="418" y="772" type="curve" smooth="yes"/>
      <point x="557" y="772"/>
      <point x="668" y="657"/>
      <point x="668" y="518" type="curve" smooth="yes"/>
      <point x="668" y="379"/>
      <point x="557" y="268"/>
      <point x="418" y="268" type="curve" smooth="yes"/>
    </contour>
  </outline>
</glyph>
<glyph name="guilsinglleft" format="1">
  <advance width="647"/>
  <unicode hex="2039"/>
  <outline>
    <contour>
      <point x="607" y="151" type="line"/>
      <point x="304" y="487" type="line"/>
      <point x="609" y="831" type="line"/>
      <point x="391" y="831" type="line"/>
      <point x="92" y="487" type="line"/>
      <point x="391" y="151" type="line"/>
    </contour>
  </outline>
</glyph>
<glyph name="euro" format="1">
  <advance width="1104"/>
  <unicode hex="20AC"/>
  <outline>
    <contour>
      <point x="844" y="-20"/>
      <point x="974" y="20"/>
      <point x="1060" y="65" type="curve"/>
      <point x="1004" y="208" type="line"/>
      <point x="931" y="171"/>
      <point x="840" y="132"/>
      <point x="752" y="132" type="curve" smooth="yes"/>
      <point x="515" y="132"/>
      <point x="379" y="352"/>
      <point x="379" y="721" type="curve" smooth="yes"/>
      <point x="379" y="1090"/>
      <point x="524" y="1302"/>
      <point x="773" y="1302" type="curve" smooth="yes"/>
      <point x="818" y="1302"/>
      <point x="937" y="1285"/>
      <point x="980" y="1266" type="curve"/>
      <point x="1029" y="1416" type="line"/>
      <point x="959" y="1439"/>
      <point x="875" y="1460"/>
      <point x="775" y="1460" type="curve" smooth="yes"/>
      <point x="412" y="1460"/>
      <point x="203" y="1188"/>
      <point x="203" y="713" type="curve" smooth="yes"/>
      <point x="203" y="247"/>
      <point x="395" y="-20"/>
      <point x="729" y="-20" type="curve" smooth="yes"/>
    </contour>
    <contour>
      <point x="896" y="485" type="line"/>
      <point x="896" y="625" type="line"/>
      <point x="102" y="625" type="line"/>
      <point x="102" y="485" type="line"/>
    </contour>
    <contour>
      <point x="896" y="807" type="line"/>
      <point x="896" y="947" type="line"/>
      <point x="102" y="947" type="line"/>
      <point x="102" y="807" type="line"/>
    </contour>
  </outline>
</glyph>
<glyph name="trademark" format="1">
  <advance width="1583"/>
  <unicode hex="2122"/>
  <outline>
    <contour>
      <point x="818" y="772" type="line"/>
      <point x="818" y="1180" type="line"/>
      <point x="822" y="1180" type="line"/>
      <point x="1006" y="772" type="line"/>
      <point x="1065" y="772" type="line"/>
      <point x="1254" y="1180" type="line"/>
      <point x="1258" y="1180" type="line"/>
      <point x="1258" y="772" type="line"/>
      <point x="1396" y="772" type="line"/>
      <point x="1396" y="1434" type="line"/>
      <point x="1240" y="1434" type="line"/>
      <point x="1042" y="998" type="line"/>
      <point x="1038" y="998" type="line"/>
      <point x="843" y="1434" type="line"/>
      <point x="686" y="1434" type="line"/>
      <point x="686" y="772" type="line"/>
    </contour>
    <contour>
      <point x="413" y="772" type="line"/>
      <point x="413" y="1286" type="line"/>
      <point x="602" y="1286" type="line"/>
      <point x="602" y="1434" type="line"/>
      <point x="76" y="1434" type="line"/>
      <point x="76" y="1286" type="line"/>
      <point x="262" y="1286" type="line"/>
      <point x="262" y="772" type="line"/>
    </contour>
  </outline>
</glyph>
<glyph name="acutecomb.case" format="1">
  <advance width="600"/>
  <outline>
    <contour>
      <point x="292" y="1218" type="line"/>
      <point x="554" y="1416" type="line"/>
      <point x="338" y="1416" type="line"/>
      <point x="115" y="1218" type="line"/>
    </contour>
    <contour>
      <point x="212" y="1546" type="move" name="top"/>
    </contour>
    <contour>
      <point x="201" y="974" type="move" name="_top"/>
    </contour>
  </outline>
</glyph>
<glyph name="brevecomb.case" format="1">
  <advance width="600"/>
  <outline>
    <contour>
      <point x="482" y="1178"/>
      <point x="591" y="1255"/>
      <point x="606" y="1390" type="curve"/>
      <point x="444" y="1390" type="line"/>
      <point x="434" y="1336"/>
      <point x="384" y="1305"/>
      <point x="309" y="1305" type="curve" smooth="yes"/>
      <point x="231" y="1305"/>
      <point x="183" y="1336"/>
      <point x="177" y="1390" type="curve"/>
      <point x="17" y="1390" type="line"/>
      <point x="25" y="1255"/>
      <point x="131" y="1178"/>
      <point x="307" y="1178" type="curve" smooth="yes"/>
    </contour>
    <contour>
      <point x="314" y="1470" type="move" name="top"/>
    </contour>
    <contour>
      <point x="312" y="974" type="move" name="_top"/>
    </contour>
  </outline>
</glyph>
<glyph name="caron.alt" format="1">
  <advance width="455"/>
  <outline>
    <contour>
      <point x="280" y="1098"/>
      <point x="326" y="1293"/>
      <point x="326" y="1457" type="curve"/>
      <point x="166" y="1457" type="line"/>
      <point x="166" y="1293"/>
      <point x="147" y="1199"/>
      <point x="89" y="1035" type="curve"/>
      <point x="206" y="965" type="line"/>
    </contour>
  </outline>
</glyph>
<glyph name="caroncomb.alt" format="1">
  <advance width="301"/>
  <outline>
    <contour>
      <point x="149" y="1224" type="line"/>
      <point x="258" y="1516" type="line"/>
      <point x="89" y="1516" type="line"/>
      <point x="61" y="1224" type="line"/>
    </contour>
    <contour>
      <point x="151" y="974" type="move" name="_topright"/>
    </contour>
  </outline>
</glyph>
<glyph name="caroncomb.case" format="1">
  <advance width="600"/>
  <outline>
    <contour>
      <point x="450" y="1187" type="line"/>
      <point x="724" y="1422" type="line"/>
      <point x="545" y="1422" type="line"/>
      <point x="381" y="1288" type="line"/>
      <point x="217" y="1422" type="line"/>
      <point x="42" y="1422" type="line"/>
      <point x="318" y="1187" type="line"/>
    </contour>
    <contour>
      <point x="385" y="1548" type="move" name="top"/>
    </contour>
    <contour>
      <point x="383" y="974" type="move" name="_top"/>
    </contour>
  </outline>
</glyph>
<glyph name="cedillacomb.case" format="1">
  <advance width="600"/>
  <outline>
    <contour>
      <point x="395" y="-432"/>
      <point x="494" y="-366"/>
      <point x="494" y="-236" type="curve" smooth="yes"/>
      <point x="494" y="-127"/>
      <point x="406" y="-64"/>
      <point x="266" y="-64" type="curve"/>
      <point x="266" y="70" type="line"/>
      <point x="178" y="70" type="line"/>
      <point x="178" y="-178" type="line"/>
      <point x="197" y="-175"/>
      <point x="210" y="-174"/>
      <point x="216" y="-174" type="curve" smooth="yes"/>
      <point x="302" y="-174"/>
      <point x="345" y="-198"/>
      <point x="345" y="-246" type="curve" smooth="yes"/>
      <point x="345" y="-293"/>
      <point x="298" y="-316"/>
      <point x="204" y="-316" type="curve" smooth="yes"/>
      <point x="186" y="-316"/>
      <point x="163" y="-314"/>
      <point x="134" y="-310" type="curve"/>
      <point x="134" y="-430" type="line"/>
      <point x="152" y="-431"/>
      <point x="174" y="-432"/>
      <point x="199" y="-432" type="curve" smooth="yes"/>
    </contour>
    <contour>
      <point x="221" y="0" type="move" name="_bottom"/>
    </contour>
    <contour>
      <point x="223" y="-432" type="move" name="bottom"/>
    </contour>
  </outline>
</glyph>
<glyph name="circumflexcomb.case" format="1">
  <advance width="600"/>
  <outline>
    <contour>
      <point x="228" y="1186" type="line"/>
      <point x="383" y="1307" type="line"/>
      <point x="537" y="1186" type="line"/>
      <point x="729" y="1186" type="line"/>
      <point x="453" y="1420" type="line"/>
      <point x="320" y="1420" type="line"/>
      <point x="45" y="1186" type="line"/>
    </contour>
    <contour>
      <point x="376" y="1550" type="move" name="top"/>
    </contour>
    <contour>
      <point x="374" y="974" type="move" name="_top"/>
    </contour>
  </outline>
</glyph>
<glyph name="commaaccentcomb.case" format="1">
  <advance width="600"/>
  <outline>
    <contour>
      <point x="273" y="-382"/>
      <point x="316" y="-242"/>
      <point x="316" y="-125" type="curve"/>
      <point x="156" y="-125" type="line"/>
      <point x="156" y="-235"/>
      <point x="139" y="-297"/>
      <point x="89" y="-407" type="curve"/>
      <point x="206" y="-477" type="line"/>
    </contour>
    <contour>
      <point x="235" y="0" type="move" name="_bottom"/>
    </contour>
    <contour>
      <point x="180" y="-617" type="move" name="bottom"/>
    </contour>
  </outline>
</glyph>
<glyph name="four.sup" format="1">
  <advance width="1950"/>
  <outline>
    <contour>
      <point x="1659" y="-1" type="line"/>
      <point x="1659" y="176" type="line"/>
      <point x="1763" y="176" type="line"/>
      <point x="1763" y="306" type="line"/>
      <point x="1659" y="306" type="line"/>
      <point x="1659" y="853" type="line"/>
      <point x="1485" y="854" type="line"/>
      <point x="1123" y="328" type="line"/>
      <point x="1123" y="176" type="line"/>
      <point x="1519" y="176" type="line"/>
      <point x="1519" y="-1" type="line"/>
    </contour>
    <contour>
      <point x="1519" y="638" type="line"/>
      <point x="1519" y="306" type="line"/>
      <point x="1277" y="306" type="line"/>
    </contour>
  </outline>
</glyph>
<glyph name="fractslash" format="1">
  <advance width="1950"/>
  <outline>
    <contour>
      <point x="1465" y="1412" type="line"/>
      <point x="1322" y="1472" type="line"/>
      <point x="447" y="0" type="line"/>
      <point x="591" y="-60" type="line"/>
    </contour>
  </outline>
</glyph>
<glyph name="gravecomb.case" format="1">
  <advance width="600"/>
  <outline>
    <contour>
      <point x="491" y="1186" type="line"/>
      <point x="290" y="1414" type="line"/>
      <point x="92" y="1414" type="line"/>
      <point x="334" y="1186" type="line"/>
    </contour>
    <contour>
      <point x="279" y="1546" type="move" name="top"/>
    </contour>
    <contour>
      <point x="412" y="974" type="move" name="_top"/>
    </contour>
  </outline>
</glyph>
<glyph name="hungarumlautcomb.case" format="1">
  <advance width="600"/>
  <outline>
    <contour>
      <point x="452" y="1188" type="line"/>
      <point x="677" y="1396" type="line"/>
      <point x="494" y="1396" type="line"/>
      <point x="305" y="1188" type="line"/>
    </contour>
    <contour>
      <point x="160" y="1188" type="line"/>
      <point x="380" y="1396" type="line"/>
      <point x="200" y="1396" type="line"/>
      <point x="14" y="1188" type="line"/>
    </contour>
    <contour>
      <point x="246" y="974" type="move" name="_top"/>
    </contour>
  </outline>
</glyph>
<glyph name="macroncomb.case" format="1">
  <advance width="600"/>
  <outline>
    <contour>
      <point x="740" y="1189" type="line"/>
      <point x="740" y="1329" type="line"/>
      <point x="110" y="1329" type="line"/>
      <point x="110" y="1189" type="line"/>
    </contour>
    <contour>
      <point x="427" y="1516" type="move" name="top"/>
    </contour>
    <contour>
      <point x="425" y="974" type="move" name="_top"/>
    </contour>
  </outline>
</glyph>
<glyph name="ogonekcomb.case" format="1">
  <advance width="600"/>
  <outline>
    <contour>
      <point x="361" y="-400"/>
      <point x="399" y="-396"/>
      <point x="412" y="-387" type="curve"/>
      <point x="396" y="-270" type="line"/>
      <point x="381" y="-275"/>
      <point x="359" y="-277"/>
      <point x="326" y="-277" type="curve" smooth="yes"/>
      <point x="260" y="-277"/>
      <point x="228" y="-249"/>
      <point x="228" y="-193" type="curve" smooth="yes"/>
      <point x="228" y="-146"/>
      <point x="284" y="-32"/>
      <point x="398" y="0" type="curve"/>
      <point x="274" y="0" type="line"/>
      <point x="204" y="-26"/>
      <point x="92" y="-136"/>
      <point x="92" y="-240" type="curve" smooth="yes"/>
      <point x="92" y="-347"/>
      <point x="161" y="-400"/>
      <point x="300" y="-400" type="curve" smooth="yes"/>
    </contour>
    <contour>
      <point x="268" y="10" type="move" name="_ogonek"/>
    </contour>
  </outline>
</glyph>
<glyph name="percentZero" format="1">
  <advance width="1676"/>
  <outline>
    <contour>
      <point x="599" y="755"/>
      <point x="746" y="910"/>
      <point x="746" y="1114" type="curve" smooth="yes"/>
      <point x="746" y="1303"/>
      <point x="608" y="1446"/>
      <point x="424" y="1446" type="curve" smooth="yes"/>
      <point x="228" y="1446"/>
      <point x="80" y="1294"/>
      <point x="80" y="1093" type="curve" smooth="yes"/>
      <point x="80" y="901"/>
      <point x="219" y="755"/>
      <point x="404" y="755" type="curve" smooth="yes"/>
    </contour>
    <contour>
      <point x="316" y="896"/>
      <point x="243" y="985"/>
      <point x="243" y="1102" type="curve" smooth="yes"/>
      <point x="243" y="1218"/>
      <point x="318" y="1306"/>
      <point x="418" y="1306" type="curve" smooth="yes"/>
      <point x="513" y="1306"/>
      <point x="584" y="1222"/>
      <point x="584" y="1110" type="curve" smooth="yes"/>
      <point x="584" y="988"/>
      <point x="511" y="896"/>
      <point x="414" y="896" type="curve" smooth="yes"/>
    </contour>
  </outline>
</glyph>
<glyph name="ringcomb.case" format="1">
  <advance width="574"/>
  <outline>
    <component base="ringcomb" yOffset="420"/>
    <contour>
      <point x="290" y="1534" type="move" name="top"/>
    </contour>
    <contour>
      <point x="288" y="1434" type="move" name="_top"/>
    </contour>
  </outline>
</glyph>
